<svg width="375" height="209" viewBox="0 0 375 209" fill="none" xmlns="http://www.w3.org/2000/svg">
<g filter="url(#filter0_d_872_11)">
<rect x="4" y="1" width="367" height="200" rx="20" fill="url(#paint0_linear_872_11)"/>
</g>
<path opacity="0.53" d="M251 200.896L41.2591 201C39.4402 201 37.6707 200.764 36 200.322L129.042 111.559C131.82 108.902 135.211 107.187 138.78 106.462C145.166 105.087 152.155 106.782 157.137 111.549L251 200.896Z" fill="url(#paint1_linear_872_11)"/>
<path opacity="0.53" d="M95.1606 72.2667L4.07932 159L4.00001 18.9272C3.99009 8.48754 12.893 0.0188632 23.858 0.00943262L47.305 0L95.1507 45.4649C102.943 52.8491 102.953 64.8637 95.1606 72.2667Z" fill="url(#paint2_linear_872_11)"/>
<path opacity="0.53" d="M192 1L163.873 28.4026C156.23 35.8579 143.809 35.8674 136.166 28.4215L108 1.04742L192 1Z" fill="url(#paint3_linear_872_11)"/>
<path opacity="0.53" d="M370.921 19.8071L371 163.986C365.683 164.183 360.287 162.362 356.222 158.486L235.822 44.0668C228.068 36.7091 228.058 24.7435 235.802 17.3765L252.947 1.04692L351.132 1C355.029 1 358.689 2.07925 361.747 3.95621C367.271 7.28781 370.921 13.1345 370.921 19.8071Z" fill="url(#paint4_linear_872_11)"/>
<path d="M62.491 171.965V181H61.009V174.812L58.253 181H57.226L54.457 174.812V181H52.975V171.965H54.574L57.746 179.05L60.905 171.965H62.491ZM72.5509 179.154H68.7679L68.1179 181H66.5709L69.8079 171.952H71.5239L74.7609 181H73.2009L72.5509 179.154ZM72.1349 177.945L70.6659 173.746L69.1839 177.945H72.1349ZM83.5263 181L81.4463 177.386H80.3153V181H78.8333V171.965H81.9533C82.6467 171.965 83.2317 172.086 83.7083 172.329C84.1937 172.572 84.5533 172.897 84.7873 173.304C85.03 173.711 85.1513 174.166 85.1513 174.669C85.1513 175.258 84.978 175.796 84.6313 176.281C84.2933 176.758 83.769 177.083 83.0583 177.256L85.2943 181H83.5263ZM80.3153 176.203H81.9533C82.508 176.203 82.924 176.064 83.2013 175.787C83.4873 175.51 83.6303 175.137 83.6303 174.669C83.6303 174.201 83.4917 173.837 83.2143 173.577C82.937 173.308 82.5167 173.174 81.9533 173.174H80.3153V176.203ZM91.1942 171.965V181H89.7122V171.965H91.1942ZM101.252 179.154H97.4689L96.8189 181H95.2719L98.5089 171.952H100.225L103.462 181H101.902L101.252 179.154ZM100.836 177.945L99.3669 173.746L97.8849 177.945H100.836ZM117.05 171.965V181H115.568V174.812L112.812 181H111.785L109.016 174.812V181H107.534V171.965H109.133L112.305 179.05L115.464 171.965H117.05ZM133.022 171.965V173.174H129.187V175.839H132.177V177.048H129.187V181H127.705V171.965H133.022ZM142.508 179.154H138.725L138.075 181H136.528L139.765 171.952H141.481L144.718 181H143.158L142.508 179.154ZM142.092 177.945L140.623 173.746L139.141 177.945H142.092ZM154.627 171.965V173.174H152.222V181H150.74V173.174H148.322V171.965H154.627ZM166.008 171.965V181H164.526V177.048H160.275V181H158.793V171.965H160.275V175.839H164.526V171.965H166.008ZM177.319 171.965L174.329 177.724V181H172.847V177.724L169.844 171.965H171.495L173.588 176.398L175.681 171.965H177.319Z" fill="white"/>
<path d="M49.42 106.166H44.73V108.952C44.926 108.691 45.2153 108.471 45.598 108.294C45.99 108.117 46.4053 108.028 46.844 108.028C47.628 108.028 48.2627 108.196 48.748 108.532C49.2427 108.868 49.5927 109.293 49.798 109.806C50.0127 110.319 50.12 110.861 50.12 111.43C50.12 112.121 49.9847 112.737 49.714 113.278C49.4527 113.81 49.056 114.23 48.524 114.538C48.0013 114.846 47.3573 115 46.592 115C45.5747 115 44.758 114.748 44.142 114.244C43.526 113.74 43.1573 113.073 43.036 112.242H44.59C44.6927 112.681 44.9213 113.031 45.276 113.292C45.6307 113.544 46.074 113.67 46.606 113.67C47.2687 113.67 47.7633 113.469 48.09 113.068C48.426 112.667 48.594 112.135 48.594 111.472C48.594 110.8 48.426 110.287 48.09 109.932C47.754 109.568 47.2593 109.386 46.606 109.386C46.1487 109.386 45.7613 109.503 45.444 109.736C45.136 109.96 44.912 110.268 44.772 110.66H43.26V104.766H49.42V106.166ZM54.4554 112.872V111.668L59.1594 104.92H61.0914V111.486H62.3934V112.872H61.0914V115H59.5234V112.872H54.4554ZM59.5934 106.544L56.2894 111.486H59.5934V106.544ZM66.5579 107.314C66.6139 106.446 66.9452 105.769 67.5519 105.284C68.1679 104.799 68.9519 104.556 69.9039 104.556C70.5572 104.556 71.1219 104.673 71.5979 104.906C72.0739 105.139 72.4332 105.457 72.6759 105.858C72.9185 106.259 73.0399 106.712 73.0399 107.216C73.0399 107.795 72.8859 108.289 72.5779 108.7C72.2699 109.111 71.9012 109.386 71.4719 109.526V109.582C72.0225 109.75 72.4519 110.058 72.7599 110.506C73.0679 110.945 73.2219 111.509 73.2219 112.2C73.2219 112.751 73.0959 113.241 72.8439 113.67C72.5919 114.099 72.2185 114.44 71.7239 114.692C71.2292 114.935 70.6365 115.056 69.9459 115.056C68.9379 115.056 68.1072 114.799 67.4539 114.286C66.8099 113.763 66.4645 113.017 66.4179 112.046H67.9579C67.9952 112.541 68.1865 112.947 68.5319 113.264C68.8772 113.572 69.3439 113.726 69.9319 113.726C70.5012 113.726 70.9399 113.572 71.2479 113.264C71.5559 112.947 71.7099 112.541 71.7099 112.046C71.7099 111.393 71.4999 110.931 71.0799 110.66C70.6692 110.38 70.0345 110.24 69.1759 110.24H68.8119V108.924H69.1899C69.9459 108.915 70.5199 108.789 70.9119 108.546C71.3132 108.303 71.5139 107.921 71.5139 107.398C71.5139 106.95 71.3692 106.595 71.0799 106.334C70.7905 106.063 70.3799 105.928 69.8479 105.928C69.3252 105.928 68.9192 106.063 68.6299 106.334C68.3405 106.595 68.1679 106.922 68.1119 107.314H66.5579ZM79.7564 112.228C79.8497 112.695 80.0504 113.049 80.3584 113.292C80.6664 113.535 81.0817 113.656 81.6044 113.656C82.267 113.656 82.7524 113.395 83.0604 112.872C83.3684 112.349 83.5224 111.458 83.5224 110.198C83.2984 110.515 82.981 110.763 82.5704 110.94C82.169 111.108 81.7304 111.192 81.2544 111.192C80.6477 111.192 80.097 111.071 79.6024 110.828C79.1077 110.576 78.7157 110.207 78.4264 109.722C78.1464 109.227 78.0064 108.63 78.0064 107.93C78.0064 106.903 78.305 106.087 78.9024 105.48C79.509 104.864 80.3397 104.556 81.3944 104.556C82.6637 104.556 83.5644 104.981 84.0964 105.83C84.6377 106.67 84.9084 107.963 84.9084 109.708C84.9084 110.912 84.8057 111.897 84.6004 112.662C84.4044 113.427 84.059 114.006 83.5644 114.398C83.0697 114.79 82.3837 114.986 81.5064 114.986C80.5077 114.986 79.7377 114.725 79.1964 114.202C78.655 113.679 78.3517 113.021 78.2864 112.228H79.7564ZM81.5344 109.848C82.0944 109.848 82.533 109.675 82.8504 109.33C83.177 108.975 83.3404 108.509 83.3404 107.93C83.3404 107.286 83.1677 106.787 82.8224 106.432C82.4864 106.068 82.0244 105.886 81.4364 105.886C80.8484 105.886 80.3817 106.073 80.0364 106.446C79.7004 106.81 79.5324 107.291 79.5324 107.888C79.5324 108.457 79.6957 108.929 80.0224 109.302C80.3584 109.666 80.8624 109.848 81.5344 109.848ZM102.343 112.872V111.668L107.047 104.92H108.979V111.486H110.281V112.872H108.979V115H107.411V112.872H102.343ZM107.481 106.544L104.177 111.486H107.481V106.544ZM121.053 106.166H116.363V108.952C116.559 108.691 116.848 108.471 117.231 108.294C117.623 108.117 118.038 108.028 118.477 108.028C119.261 108.028 119.896 108.196 120.381 108.532C120.876 108.868 121.226 109.293 121.431 109.806C121.646 110.319 121.753 110.861 121.753 111.43C121.753 112.121 121.618 112.737 121.347 113.278C121.086 113.81 120.689 114.23 120.157 114.538C119.634 114.846 118.99 115 118.225 115C117.208 115 116.391 114.748 115.775 114.244C115.159 113.74 114.79 113.073 114.669 112.242H116.223C116.326 112.681 116.554 113.031 116.909 113.292C117.264 113.544 117.707 113.67 118.239 113.67C118.902 113.67 119.396 113.469 119.723 113.068C120.059 112.667 120.227 112.135 120.227 111.472C120.227 110.8 120.059 110.287 119.723 109.932C119.387 109.568 118.892 109.386 118.239 109.386C117.782 109.386 117.394 109.503 117.077 109.736C116.769 109.96 116.545 110.268 116.405 110.66H114.893V104.766H121.053V106.166ZM126.074 106.25V104.794H128.986V115H127.376V106.25H126.074ZM134.049 109.764C134.049 108.149 134.32 106.889 134.861 105.984C135.412 105.069 136.354 104.612 137.689 104.612C139.024 104.612 139.962 105.069 140.503 105.984C141.054 106.889 141.329 108.149 141.329 109.764C141.329 111.397 141.054 112.676 140.503 113.6C139.962 114.515 139.024 114.972 137.689 114.972C136.354 114.972 135.412 114.515 134.861 113.6C134.32 112.676 134.049 111.397 134.049 109.764ZM139.761 109.764C139.761 109.008 139.71 108.369 139.607 107.846C139.514 107.323 139.318 106.899 139.019 106.572C138.72 106.236 138.277 106.068 137.689 106.068C137.101 106.068 136.658 106.236 136.359 106.572C136.06 106.899 135.86 107.323 135.757 107.846C135.664 108.369 135.617 109.008 135.617 109.764C135.617 110.548 135.664 111.206 135.757 111.738C135.85 112.27 136.046 112.699 136.345 113.026C136.653 113.353 137.101 113.516 137.689 113.516C138.277 113.516 138.72 113.353 139.019 113.026C139.327 112.699 139.528 112.27 139.621 111.738C139.714 111.206 139.761 110.548 139.761 109.764ZM158.873 107.314C158.929 106.446 159.26 105.769 159.867 105.284C160.483 104.799 161.267 104.556 162.219 104.556C162.872 104.556 163.437 104.673 163.913 104.906C164.389 105.139 164.748 105.457 164.991 105.858C165.234 106.259 165.355 106.712 165.355 107.216C165.355 107.795 165.201 108.289 164.893 108.7C164.585 109.111 164.216 109.386 163.787 109.526V109.582C164.338 109.75 164.767 110.058 165.075 110.506C165.383 110.945 165.537 111.509 165.537 112.2C165.537 112.751 165.411 113.241 165.159 113.67C164.907 114.099 164.534 114.44 164.039 114.692C163.544 114.935 162.952 115.056 162.261 115.056C161.253 115.056 160.422 114.799 159.769 114.286C159.125 113.763 158.78 113.017 158.733 112.046H160.273C160.31 112.541 160.502 112.947 160.847 113.264C161.192 113.572 161.659 113.726 162.247 113.726C162.816 113.726 163.255 113.572 163.563 113.264C163.871 112.947 164.025 112.541 164.025 112.046C164.025 111.393 163.815 110.931 163.395 110.66C162.984 110.38 162.35 110.24 161.491 110.24H161.127V108.924H161.505C162.261 108.915 162.835 108.789 163.227 108.546C163.628 108.303 163.829 107.921 163.829 107.398C163.829 106.95 163.684 106.595 163.395 106.334C163.106 106.063 162.695 105.928 162.163 105.928C161.64 105.928 161.234 106.063 160.945 106.334C160.656 106.595 160.483 106.922 160.427 107.314H158.873ZM169.874 106.25V104.794H172.786V115H171.176V106.25H169.874ZM177.638 106.25V104.794H180.55V115H178.94V106.25H177.638ZM185.403 106.25V104.794H188.315V115H186.705V106.25H185.403ZM206.195 112.872V111.668L210.899 104.92H212.831V111.486H214.133V112.872H212.831V115H211.263V112.872H206.195ZM211.333 106.544L208.029 111.486H211.333V106.544ZM224.793 106.026L220.901 115H219.291L223.225 106.194H218.045V104.836H224.793V106.026ZM231.017 112.228C231.11 112.695 231.311 113.049 231.619 113.292C231.927 113.535 232.342 113.656 232.865 113.656C233.528 113.656 234.013 113.395 234.321 112.872C234.629 112.349 234.783 111.458 234.783 110.198C234.559 110.515 234.242 110.763 233.831 110.94C233.43 111.108 232.991 111.192 232.515 111.192C231.908 111.192 231.358 111.071 230.863 110.828C230.368 110.576 229.976 110.207 229.687 109.722C229.407 109.227 229.267 108.63 229.267 107.93C229.267 106.903 229.566 106.087 230.163 105.48C230.77 104.864 231.6 104.556 232.655 104.556C233.924 104.556 234.825 104.981 235.357 105.83C235.898 106.67 236.169 107.963 236.169 109.708C236.169 110.912 236.066 111.897 235.861 112.662C235.665 113.427 235.32 114.006 234.825 114.398C234.33 114.79 233.644 114.986 232.767 114.986C231.768 114.986 230.998 114.725 230.457 114.202C229.916 113.679 229.612 113.021 229.547 112.228H231.017ZM232.795 109.848C233.355 109.848 233.794 109.675 234.111 109.33C234.438 108.975 234.601 108.509 234.601 107.93C234.601 107.286 234.428 106.787 234.083 106.432C233.747 106.068 233.285 105.886 232.697 105.886C232.109 105.886 231.642 106.073 231.297 106.446C230.961 106.81 230.793 107.291 230.793 107.888C230.793 108.457 230.956 108.929 231.283 109.302C231.619 109.666 232.123 109.848 232.795 109.848ZM246.274 107.16C246.171 106.731 245.984 106.409 245.714 106.194C245.443 105.979 245.065 105.872 244.58 105.872C243.842 105.872 243.292 106.157 242.928 106.726C242.564 107.286 242.372 108.219 242.354 109.526C242.596 109.115 242.951 108.798 243.418 108.574C243.884 108.35 244.388 108.238 244.93 108.238C245.546 108.238 246.087 108.373 246.554 108.644C247.03 108.905 247.398 109.288 247.66 109.792C247.93 110.296 248.066 110.898 248.066 111.598C248.066 112.251 247.935 112.835 247.674 113.348C247.422 113.861 247.044 114.267 246.54 114.566C246.036 114.855 245.429 115 244.72 115C243.758 115 243.002 114.79 242.452 114.37C241.91 113.941 241.528 113.339 241.304 112.564C241.089 111.789 240.982 110.823 240.982 109.666C240.982 106.25 242.186 104.542 244.594 104.542C245.527 104.542 246.26 104.794 246.792 105.298C247.333 105.802 247.65 106.423 247.744 107.16H246.274ZM244.58 109.582C244.01 109.582 243.525 109.755 243.124 110.1C242.732 110.436 242.536 110.926 242.536 111.57C242.536 112.214 242.718 112.727 243.082 113.11C243.455 113.483 243.973 113.67 244.636 113.67C245.224 113.67 245.686 113.488 246.022 113.124C246.367 112.76 246.54 112.275 246.54 111.668C246.54 111.033 246.372 110.529 246.036 110.156C245.709 109.773 245.224 109.582 244.58 109.582Z" fill="white"/>
<path d="M185.714 141.974C185.714 142.851 185.619 143.612 185.427 144.256C185.241 144.9 184.982 145.434 184.65 145.859C184.324 146.279 183.936 146.592 183.488 146.797C183.045 147.002 182.567 147.105 182.053 147.105C181.54 147.105 181.059 147.002 180.611 146.797C180.168 146.592 179.783 146.279 179.456 145.859C179.13 145.434 178.873 144.9 178.686 144.256C178.5 143.612 178.406 142.851 178.406 141.974C178.406 141.097 178.5 140.336 178.686 139.692C178.873 139.043 179.13 138.509 179.456 138.089C179.783 137.664 180.168 137.349 180.611 137.144C181.059 136.939 181.54 136.836 182.053 136.836C182.567 136.836 183.045 136.939 183.488 137.144C183.936 137.349 184.324 137.664 184.65 138.089C184.982 138.509 185.241 139.043 185.427 139.692C185.619 140.336 185.714 141.097 185.714 141.974ZM184.3 141.974C184.3 141.218 184.237 140.586 184.111 140.077C183.99 139.568 183.824 139.16 183.614 138.852C183.409 138.539 183.171 138.318 182.9 138.187C182.63 138.056 182.347 137.991 182.053 137.991C181.759 137.991 181.477 138.056 181.206 138.187C180.936 138.318 180.695 138.539 180.485 138.852C180.28 139.16 180.117 139.568 179.995 140.077C179.874 140.586 179.813 141.218 179.813 141.974C179.813 142.73 179.874 143.362 179.995 143.871C180.117 144.38 180.28 144.788 180.485 145.096C180.695 145.404 180.936 145.623 181.206 145.754C181.477 145.885 181.759 145.95 182.053 145.95C182.347 145.95 182.63 145.885 182.9 145.754C183.171 145.623 183.409 145.404 183.614 145.096C183.824 144.788 183.99 144.38 184.111 143.871C184.237 143.362 184.3 142.73 184.3 141.974ZM193.024 145.705C193.173 145.705 193.29 145.749 193.374 145.838C193.458 145.922 193.5 146.034 193.5 146.174V147H186.752V146.531C186.752 146.438 186.77 146.34 186.808 146.237C186.845 146.13 186.908 146.034 186.997 145.95L190.175 142.765C190.441 142.499 190.681 142.242 190.896 141.995C191.11 141.748 191.292 141.503 191.442 141.26C191.591 141.013 191.705 140.761 191.785 140.504C191.869 140.247 191.911 139.977 191.911 139.692C191.911 139.412 191.866 139.167 191.778 138.957C191.689 138.742 191.568 138.565 191.414 138.425C191.26 138.285 191.078 138.18 190.868 138.11C190.658 138.04 190.431 138.005 190.189 138.005C189.946 138.005 189.722 138.04 189.517 138.11C189.316 138.18 189.136 138.278 188.978 138.404C188.819 138.53 188.686 138.679 188.579 138.852C188.471 139.025 188.394 139.211 188.348 139.412C188.282 139.589 188.198 139.708 188.096 139.769C187.998 139.83 187.853 139.844 187.662 139.811L186.948 139.685C187.013 139.218 187.141 138.808 187.333 138.453C187.524 138.098 187.764 137.802 188.054 137.564C188.343 137.321 188.674 137.139 189.048 137.018C189.426 136.897 189.832 136.836 190.266 136.836C190.704 136.836 191.108 136.901 191.477 137.032C191.85 137.158 192.172 137.342 192.443 137.585C192.713 137.828 192.926 138.124 193.08 138.474C193.234 138.819 193.311 139.211 193.311 139.65C193.311 140.023 193.255 140.371 193.143 140.693C193.035 141.01 192.886 141.314 192.695 141.603C192.508 141.892 192.289 142.175 192.037 142.45C191.789 142.721 191.526 142.996 191.246 143.276L188.698 145.88C188.894 145.829 189.09 145.787 189.286 145.754C189.486 145.721 189.675 145.705 189.853 145.705H193.024ZM196.014 147.112C195.948 147.289 195.846 147.42 195.706 147.504C195.566 147.593 195.421 147.637 195.272 147.637H194.698L198.87 137.165C198.935 137.006 199.028 136.885 199.15 136.801C199.276 136.712 199.42 136.668 199.584 136.668H200.165L196.014 147.112ZM207.516 145.705C207.665 145.705 207.782 145.749 207.866 145.838C207.95 145.922 207.992 146.034 207.992 146.174V147H201.244V146.531C201.244 146.438 201.262 146.34 201.3 146.237C201.337 146.13 201.4 146.034 201.489 145.95L204.667 142.765C204.933 142.499 205.173 142.242 205.388 141.995C205.602 141.748 205.784 141.503 205.934 141.26C206.083 141.013 206.197 140.761 206.277 140.504C206.361 140.247 206.403 139.977 206.403 139.692C206.403 139.412 206.358 139.167 206.27 138.957C206.181 138.742 206.06 138.565 205.906 138.425C205.752 138.285 205.57 138.18 205.36 138.11C205.15 138.04 204.923 138.005 204.681 138.005C204.438 138.005 204.214 138.04 204.009 138.11C203.808 138.18 203.628 138.278 203.47 138.404C203.311 138.53 203.178 138.679 203.071 138.852C202.963 139.025 202.886 139.211 202.84 139.412C202.774 139.589 202.69 139.708 202.588 139.769C202.49 139.83 202.345 139.844 202.154 139.811L201.44 139.685C201.505 139.218 201.633 138.808 201.825 138.453C202.016 138.098 202.256 137.802 202.546 137.564C202.835 137.321 203.166 137.139 203.54 137.018C203.918 136.897 204.324 136.836 204.758 136.836C205.196 136.836 205.6 136.901 205.969 137.032C206.342 137.158 206.664 137.342 206.935 137.585C207.205 137.828 207.418 138.124 207.572 138.474C207.726 138.819 207.803 139.211 207.803 139.65C207.803 140.023 207.747 140.371 207.635 140.693C207.527 141.01 207.378 141.314 207.187 141.603C207 141.892 206.781 142.175 206.529 142.45C206.281 142.721 206.018 142.996 205.738 143.276L203.19 145.88C203.386 145.829 203.582 145.787 203.778 145.754C203.978 145.721 204.167 145.705 204.345 145.705H207.516ZM213.817 143.332V139.412C213.817 139.277 213.819 139.134 213.824 138.985C213.833 138.831 213.85 138.672 213.873 138.509L210.352 143.332H213.817ZM216.47 143.332V144.123C216.47 144.202 216.444 144.27 216.393 144.326C216.342 144.382 216.269 144.41 216.176 144.41H215.014V147H213.817V144.41H209.407C209.304 144.41 209.218 144.382 209.148 144.326C209.078 144.265 209.031 144.191 209.008 144.102L208.868 143.402L213.726 136.941H215.014V143.332H216.47Z" fill="white"/>
<path d="M164.182 137.26L162.722 140.85H162.244L160.784 137.26H161.209C161.256 137.26 161.294 137.271 161.322 137.295C161.352 137.318 161.374 137.348 161.389 137.385L162.359 139.825C162.383 139.885 162.405 139.95 162.427 140.022C162.45 140.094 162.471 140.169 162.489 140.247C162.506 140.169 162.524 140.094 162.544 140.022C162.564 139.95 162.586 139.885 162.609 139.825L163.577 137.385C163.589 137.351 163.609 137.322 163.639 137.297C163.671 137.272 163.709 137.26 163.754 137.26H164.182ZM166.264 139.512L165.732 138.12C165.693 138.025 165.655 137.905 165.617 137.76C165.598 137.831 165.579 137.898 165.559 137.96C165.541 138.021 165.523 138.076 165.504 138.125L164.974 139.512H166.264ZM167.317 140.85H166.907C166.86 140.85 166.822 140.838 166.792 140.815C166.762 140.791 166.74 140.761 166.727 140.725L166.409 139.892H164.827L164.509 140.725C164.498 140.756 164.476 140.785 164.444 140.812C164.413 140.837 164.374 140.85 164.329 140.85H163.919L165.349 137.26H165.887L167.317 140.85ZM169.82 140.402V140.85H167.765V137.26H168.297V140.402H169.82ZM170.873 140.85H170.338V137.26H170.873V140.85ZM174.892 139.055C174.892 139.323 174.848 139.567 174.762 139.787C174.677 140.007 174.556 140.196 174.399 140.355C174.242 140.511 174.055 140.633 173.837 140.72C173.618 140.806 173.376 140.85 173.109 140.85H171.759V137.26H173.109C173.376 137.26 173.618 137.303 173.837 137.39C174.055 137.476 174.242 137.599 174.399 137.757C174.556 137.914 174.677 138.103 174.762 138.325C174.848 138.545 174.892 138.788 174.892 139.055ZM174.347 139.055C174.347 138.841 174.317 138.65 174.259 138.482C174.201 138.312 174.117 138.169 174.009 138.052C173.902 137.934 173.772 137.844 173.619 137.782C173.467 137.72 173.297 137.69 173.109 137.69H172.294V140.42H173.109C173.297 140.42 173.467 140.389 173.619 140.327C173.772 140.265 173.902 140.176 174.009 140.06C174.117 139.941 174.201 139.798 174.259 139.63C174.317 139.461 174.347 139.27 174.347 139.055ZM164.668 143.705H163.528V146.85H162.998V143.705H161.853V143.26H164.668V143.705ZM168.124 143.26V146.85H167.592V145.232H165.719V146.85H165.184V143.26H165.719V144.845H167.592V143.26H168.124ZM170.03 144.99C170.167 144.99 170.287 144.973 170.39 144.94C170.495 144.906 170.582 144.86 170.652 144.8C170.722 144.738 170.775 144.665 170.81 144.582C170.845 144.497 170.862 144.404 170.862 144.302C170.862 144.095 170.794 143.94 170.657 143.835C170.522 143.73 170.319 143.677 170.047 143.677H169.545V144.99H170.03ZM171.705 146.85H171.23C171.135 146.85 171.066 146.812 171.022 146.737L170.135 145.492C170.107 145.45 170.076 145.421 170.042 145.405C170.009 145.386 169.959 145.377 169.892 145.377H169.545V146.85H169.012V143.26H170.047C170.279 143.26 170.478 143.284 170.645 143.332C170.813 143.379 170.952 143.446 171.06 143.535C171.17 143.621 171.251 143.726 171.302 143.85C171.356 143.973 171.382 144.111 171.382 144.265C171.382 144.39 171.363 144.507 171.325 144.617C171.287 144.727 171.23 144.826 171.155 144.915C171.082 145.001 170.992 145.076 170.885 145.14C170.778 145.203 170.657 145.251 170.522 145.285C170.589 145.325 170.647 145.38 170.695 145.452L171.705 146.85ZM173.542 146.422C173.686 146.422 173.814 146.398 173.927 146.35C174.041 146.301 174.136 146.234 174.215 146.147C174.293 146.059 174.353 145.955 174.395 145.835C174.436 145.713 174.457 145.579 174.457 145.432V143.26H174.987V145.432C174.987 145.642 174.954 145.836 174.887 146.015C174.821 146.193 174.725 146.347 174.6 146.477C174.475 146.607 174.323 146.709 174.145 146.782C173.966 146.855 173.766 146.892 173.542 146.892C173.319 146.892 173.118 146.855 172.94 146.782C172.761 146.709 172.61 146.607 172.485 146.477C172.36 146.347 172.264 146.193 172.197 146.015C172.131 145.836 172.097 145.642 172.097 145.432V143.26H172.63V145.43C172.63 145.576 172.65 145.71 172.69 145.832C172.731 145.954 172.791 146.059 172.87 146.147C172.948 146.234 173.044 146.301 173.157 146.35C173.271 146.398 173.399 146.422 173.542 146.422Z" fill="white"/>
<path d="M23.518 38.114C23.518 37.162 23.7373 36.308 24.176 35.552C24.624 34.796 25.226 34.208 25.982 33.788C26.7473 33.3587 27.5827 33.144 28.488 33.144C29.524 33.144 30.4433 33.4007 31.246 33.914C32.058 34.418 32.646 35.1367 33.01 36.07H31.092C30.84 35.5567 30.49 35.174 30.042 34.922C29.594 34.67 29.076 34.544 28.488 34.544C27.844 34.544 27.27 34.6887 26.766 34.978C26.262 35.2673 25.8653 35.6827 25.576 36.224C25.296 36.7653 25.156 37.3953 25.156 38.114C25.156 38.8327 25.296 39.4627 25.576 40.004C25.8653 40.5453 26.262 40.9653 26.766 41.264C27.27 41.5533 27.844 41.698 28.488 41.698C29.076 41.698 29.594 41.572 30.042 41.32C30.49 41.068 30.84 40.6853 31.092 40.172H33.01C32.646 41.1053 32.058 41.824 31.246 42.328C30.4433 42.832 29.524 43.084 28.488 43.084C27.5733 43.084 26.738 42.874 25.982 42.454C25.226 42.0247 24.624 41.432 24.176 40.676C23.7373 39.92 23.518 39.066 23.518 38.114ZM36.4741 36.406C36.7075 36.014 37.0155 35.7107 37.3981 35.496C37.7901 35.272 38.2521 35.16 38.7841 35.16V36.812H38.3781C37.7528 36.812 37.2768 36.9707 36.9501 37.288C36.6328 37.6053 36.4741 38.156 36.4741 38.94V43H34.8781V35.286H36.4741V36.406ZM47.3212 38.954C47.3212 39.2433 47.3025 39.5047 47.2652 39.738H41.3712C41.4178 40.354 41.6465 40.8487 42.0572 41.222C42.4678 41.5953 42.9718 41.782 43.5692 41.782C44.4278 41.782 45.0345 41.4227 45.3892 40.704H47.1112C46.8778 41.4133 46.4532 41.9967 45.8372 42.454C45.2305 42.902 44.4745 43.126 43.5692 43.126C42.8318 43.126 42.1692 42.9627 41.5812 42.636C41.0025 42.3 40.5452 41.8333 40.2092 41.236C39.8825 40.6293 39.7192 39.9293 39.7192 39.136C39.7192 38.3427 39.8778 37.6473 40.1952 37.05C40.5218 36.4433 40.9745 35.9767 41.5532 35.65C42.1412 35.3233 42.8132 35.16 43.5692 35.16C44.2972 35.16 44.9458 35.3187 45.5152 35.636C46.0845 35.9533 46.5278 36.4013 46.8452 36.98C47.1625 37.5493 47.3212 38.2073 47.3212 38.954ZM45.6552 38.45C45.6458 37.862 45.4358 37.3907 45.0252 37.036C44.6145 36.6813 44.1058 36.504 43.4992 36.504C42.9485 36.504 42.4772 36.6813 42.0852 37.036C41.6932 37.3813 41.4598 37.8527 41.3852 38.45H45.6552ZM48.3598 39.108C48.3598 38.3333 48.5185 37.6473 48.8358 37.05C49.1625 36.4527 49.6011 35.9907 50.1518 35.664C50.7118 35.328 51.3325 35.16 52.0138 35.16C52.5178 35.16 53.0125 35.272 53.4978 35.496C53.9925 35.7107 54.3845 36 54.6738 36.364V32.64H56.2838V43H54.6738V41.838C54.4125 42.2113 54.0485 42.5193 53.5818 42.762C53.1245 43.0047 52.5971 43.126 51.9998 43.126C51.3278 43.126 50.7118 42.958 50.1518 42.622C49.6011 42.2767 49.1625 41.8007 48.8358 41.194C48.5185 40.578 48.3598 39.8827 48.3598 39.108ZM54.6738 39.136C54.6738 38.604 54.5618 38.142 54.3378 37.75C54.1231 37.358 53.8385 37.0593 53.4838 36.854C53.1291 36.6487 52.7465 36.546 52.3358 36.546C51.9251 36.546 51.5425 36.6487 51.1878 36.854C50.8331 37.05 50.5438 37.344 50.3198 37.736C50.1051 38.1187 49.9978 38.576 49.9978 39.108C49.9978 39.64 50.1051 40.1067 50.3198 40.508C50.5438 40.9093 50.8331 41.2173 51.1878 41.432C51.5518 41.6373 51.9345 41.74 52.3358 41.74C52.7465 41.74 53.1291 41.6373 53.4838 41.432C53.8385 41.2267 54.1231 40.928 54.3378 40.536C54.5618 40.1347 54.6738 39.668 54.6738 39.136ZM59.1921 34.264C58.9027 34.264 58.6601 34.166 58.4641 33.97C58.2681 33.774 58.1701 33.5313 58.1701 33.242C58.1701 32.9527 58.2681 32.71 58.4641 32.514C58.6601 32.318 58.9027 32.22 59.1921 32.22C59.4721 32.22 59.7101 32.318 59.9061 32.514C60.1021 32.71 60.2001 32.9527 60.2001 33.242C60.2001 33.5313 60.1021 33.774 59.9061 33.97C59.7101 34.166 59.4721 34.264 59.1921 34.264ZM59.9761 35.286V43H58.3801V35.286H59.9761ZM63.9335 36.588V40.858C63.9335 41.1473 63.9988 41.3573 64.1295 41.488C64.2695 41.6093 64.5028 41.67 64.8295 41.67H65.8095V43H64.5495C63.8308 43 63.2802 42.832 62.8975 42.496C62.5148 42.16 62.3235 41.614 62.3235 40.858V36.588H61.4135V35.286H62.3235V33.368H63.9335V35.286H65.8095V36.588H63.9335ZM70.3852 38.114C70.3852 37.162 70.6045 36.308 71.0432 35.552C71.4912 34.796 72.0932 34.208 72.8492 33.788C73.6145 33.3587 74.4499 33.144 75.3552 33.144C76.3912 33.144 77.3105 33.4007 78.1132 33.914C78.9252 34.418 79.5132 35.1367 79.8772 36.07H77.9592C77.7072 35.5567 77.3572 35.174 76.9092 34.922C76.4612 34.67 75.9432 34.544 75.3552 34.544C74.7112 34.544 74.1372 34.6887 73.6332 34.978C73.1292 35.2673 72.7325 35.6827 72.4432 36.224C72.1632 36.7653 72.0232 37.3953 72.0232 38.114C72.0232 38.8327 72.1632 39.4627 72.4432 40.004C72.7325 40.5453 73.1292 40.9653 73.6332 41.264C74.1372 41.5533 74.7112 41.698 75.3552 41.698C75.9432 41.698 76.4612 41.572 76.9092 41.32C77.3572 41.068 77.7072 40.6853 77.9592 40.172H79.8772C79.5132 41.1053 78.9252 41.824 78.1132 42.328C77.3105 42.832 76.3912 43.084 75.3552 43.084C74.4405 43.084 73.6052 42.874 72.8492 42.454C72.0932 42.0247 71.4912 41.432 71.0432 40.676C70.6045 39.92 70.3852 39.066 70.3852 38.114ZM81.2133 39.108C81.2133 38.3333 81.372 37.6473 81.6893 37.05C82.016 36.4527 82.4546 35.9907 83.0053 35.664C83.5653 35.328 84.1813 35.16 84.8533 35.16C85.46 35.16 85.9873 35.2813 86.4353 35.524C86.8926 35.7573 87.2566 36.0513 87.5273 36.406V35.286H89.1373V43H87.5273V41.852C87.2566 42.216 86.888 42.5193 86.4213 42.762C85.9546 43.0047 85.4226 43.126 84.8253 43.126C84.1626 43.126 83.556 42.958 83.0053 42.622C82.4546 42.2767 82.016 41.8007 81.6893 41.194C81.372 40.578 81.2133 39.8827 81.2133 39.108ZM87.5273 39.136C87.5273 38.604 87.4153 38.142 87.1913 37.75C86.9766 37.358 86.692 37.0593 86.3373 36.854C85.9826 36.6487 85.6 36.546 85.1893 36.546C84.7786 36.546 84.396 36.6487 84.0413 36.854C83.6866 37.05 83.3973 37.344 83.1733 37.736C82.9586 38.1187 82.8513 38.576 82.8513 39.108C82.8513 39.64 82.9586 40.1067 83.1733 40.508C83.3973 40.9093 83.6866 41.2173 84.0413 41.432C84.4053 41.6373 84.788 41.74 85.1893 41.74C85.6 41.74 85.9826 41.6373 86.3373 41.432C86.692 41.2267 86.9766 40.928 87.1913 40.536C87.4153 40.1347 87.5273 39.668 87.5273 39.136ZM92.8296 36.406C93.0629 36.014 93.3709 35.7107 93.7536 35.496C94.1456 35.272 94.6076 35.16 95.1396 35.16V36.812H94.7336C94.1083 36.812 93.6323 36.9707 93.3056 37.288C92.9883 37.6053 92.8296 38.156 92.8296 38.94V43H91.2336V35.286H92.8296V36.406ZM96.0746 39.108C96.0746 38.3333 96.2333 37.6473 96.5506 37.05C96.8773 36.4527 97.316 35.9907 97.8666 35.664C98.4266 35.328 99.0473 35.16 99.7286 35.16C100.233 35.16 100.727 35.272 101.213 35.496C101.707 35.7107 102.099 36 102.389 36.364V32.64H103.999V43H102.389V41.838C102.127 42.2113 101.763 42.5193 101.297 42.762C100.839 43.0047 100.312 43.126 99.7146 43.126C99.0426 43.126 98.4266 42.958 97.8666 42.622C97.316 42.2767 96.8773 41.8007 96.5506 41.194C96.2333 40.578 96.0746 39.8827 96.0746 39.108ZM102.389 39.136C102.389 38.604 102.277 38.142 102.053 37.75C101.838 37.358 101.553 37.0593 101.199 36.854C100.844 36.6487 100.461 36.546 100.051 36.546C99.64 36.546 99.2573 36.6487 98.9026 36.854C98.548 37.05 98.2586 37.344 98.0346 37.736C97.82 38.1187 97.7126 38.576 97.7126 39.108C97.7126 39.64 97.82 40.1067 98.0346 40.508C98.2586 40.9093 98.548 41.2173 98.9026 41.432C99.2666 41.6373 99.6493 41.74 100.051 41.74C100.461 41.74 100.844 41.6373 101.199 41.432C101.553 41.2267 101.838 40.928 102.053 40.536C102.277 40.1347 102.389 39.668 102.389 39.136Z" fill="white"/>
<ellipse cx="313.5" cy="161" rx="16.5" ry="17" fill="#FF3D00"/>
<ellipse cx="333.5" cy="161" rx="15.5" ry="17" fill="#FFB800" style="mix-blend-mode:color-dodge"/>
<defs>
<filter id="filter0_d_872_11" x="0" y="1" width="375" height="208" filterUnits="userSpaceOnUse" color-interpolation-filters="sRGB">
<feFlood flood-opacity="0" result="BackgroundImageFix"/>
<feColorMatrix in="SourceAlpha" type="matrix" values="0 0 0 0 0 0 0 0 0 0 0 0 0 0 0 0 0 0 127 0" result="hardAlpha"/>
<feOffset dy="4"/>
<feGaussianBlur stdDeviation="2"/>
<feComposite in2="hardAlpha" operator="out"/>
<feColorMatrix type="matrix" values="0 0 0 0 0.792157 0 0 0 0 0.890196 0 0 0 0 0.901961 0 0 0 0.54 0"/>
<feBlend mode="normal" in2="BackgroundImageFix" result="effect1_dropShadow_872_11"/>
<feBlend mode="normal" in="SourceGraphic" in2="effect1_dropShadow_872_11" result="shape"/>
</filter>
<linearGradient id="paint0_linear_872_11" x1="187.5" y1="1" x2="187.5" y2="201" gradientUnits="userSpaceOnUse">
<stop stop-color="#238C98"/>
<stop offset="0.0001" stop-color="#238C98"/>
<stop offset="1" stop-color="#238C98"/>
</linearGradient>
<linearGradient id="paint1_linear_872_11" x1="35.9763" y1="153.53" x2="250.972" y2="153.407" gradientUnits="userSpaceOnUse">
<stop stop-color="#52AAB3"/>
<stop offset="1" stop-color="#53AAB4"/>
</linearGradient>
<linearGradient id="paint2_linear_872_11" x1="-34.8126" y1="122.045" x2="65.0944" y2="16.9005" gradientUnits="userSpaceOnUse">
<stop stop-color="#238C98"/>
<stop offset="1" stop-color="#58ADB7"/>
</linearGradient>
<linearGradient id="paint3_linear_872_11" x1="129.009" y1="21.4686" x2="169.835" y2="-20.5404" gradientUnits="userSpaceOnUse">
<stop stop-color="#238C98"/>
<stop offset="1" stop-color="#54AAB4"/>
</linearGradient>
<linearGradient id="paint4_linear_872_11" x1="555.102" y1="191.852" x2="196.033" y2="-31.2673" gradientUnits="userSpaceOnUse">
<stop stop-color="#238C98"/>
<stop offset="1" stop-color="#BBEBF0"/>
</linearGradient>
</defs>
</svg>
