<svg xmlns="http://www.w3.org/2000/svg" xml:space="preserve" style="enable-background:new 0 0 750 500" viewBox="0 0 750 500"><path d="M151.535 143.025h134.991v198.769H151.535z" style="fill:#f5f5f5" transform="rotate(-33.778 219.017 242.392)"/><path d="m272.42 279.659-1.274 7.881-55.778-8.035 1.273-7.881z" style="fill:#e0e0e0"/><path d="m244.329 251.546 8.004 1.154-8.874 54.917-8.005-1.152zM192.952 181.745c.08.12-11.165 7.781-25.112 17.11-13.952 9.332-25.324 16.798-25.404 16.678-.08-.119 11.162-7.779 25.115-17.111 13.947-9.329 25.321-16.796 25.401-16.677zM234.216 171.387c.08.12-18.619 12.767-41.759 28.244-23.149 15.483-41.973 27.934-42.053 27.814-.08-.119 18.615-12.764 41.763-28.247 23.14-15.477 41.969-27.93 42.049-27.811zM242.487 183.753c.08.12-18.619 12.767-41.759 28.244-23.149 15.483-41.973 27.934-42.053 27.814-.08-.12 18.615-12.764 41.763-28.247 23.141-15.477 41.969-27.93 42.049-27.811zM250.758 196.12c.08.12-18.619 12.767-41.759 28.244-23.149 15.483-41.973 27.934-42.053 27.814-.08-.119 18.615-12.764 41.763-28.247 23.141-15.478 41.969-27.931 42.049-27.811zM259.03 208.486c.08.12-18.619 12.766-41.759 28.244-23.149 15.483-41.973 27.934-42.053 27.814-.08-.12 18.615-12.764 41.763-28.247 23.14-15.477 41.969-27.93 42.049-27.811z" style="fill:#e0e0e0"/><path d="M537.677 250.43h113.369v166.932H537.677z" style="fill:#f5f5f5" transform="rotate(-33.778 594.322 333.87)"/><path d="m639.199 365.18-1.069 6.618-46.845-6.749 1.07-6.618z" style="fill:#e0e0e0"/><path d="m615.608 341.569 6.722.969-7.453 46.121-6.722-.968zM572.46 282.948c.08.12-9.353 6.569-21.067 14.404-11.718 7.837-21.278 14.092-21.358 13.972-.08-.12 9.351-6.568 21.069-14.405 11.713-7.834 21.276-14.09 21.356-13.971zM607.114 274.249c.08.12-15.613 10.756-35.047 23.755-19.441 13.003-35.26 23.444-35.34 23.324-.08-.12 15.61-10.754 35.051-23.757 19.433-12.998 35.256-23.441 35.336-23.322zM614.061 284.635c.08.12-15.613 10.757-35.047 23.755-19.441 13.003-35.26 23.444-35.34 23.324-.08-.12 15.61-10.754 35.051-23.757 19.433-12.999 35.256-23.442 35.336-23.322zM621.007 295.02c.08.12-15.613 10.756-35.047 23.755-19.441 13.003-35.26 23.444-35.34 23.324-.08-.119 15.61-10.754 35.051-23.757 19.433-12.998 35.256-23.441 35.336-23.322zM627.954 305.406c.08.12-15.613 10.756-35.047 23.755-19.441 13.003-35.26 23.444-35.34 23.324-.08-.119 15.61-10.754 35.051-23.757 19.433-12.998 35.256-23.442 35.336-23.322z" style="fill:#e0e0e0"/><path d="M295.799 90.691h116.6V262.38h-116.6z" style="fill:#f5f5f5" transform="rotate(28.14 354.106 176.529)"/><path d="m347.422 232.368-6.523 2.234-16.558-45.774 6.524-2.234z" style="fill:#e0e0e0"/><path d="m357.423 199.529 2.377 6.569-45.46 15.569-2.376-6.569zM389.724 131.993c-.081.151-10.509-5.27-23.29-12.105-12.785-6.838-23.081-12.501-23-12.652.081-.15 10.507 5.269 23.292 12.106 12.781 6.836 23.079 12.501 22.998 12.651zM414.397 159.227c-.081.151-17.34-8.923-38.544-20.263-21.212-11.345-38.337-20.66-38.256-20.811.081-.15 17.336 8.921 38.548 20.266 21.204 11.34 38.333 20.657 38.252 20.808zM408.337 170.559c-.081.151-17.34-8.923-38.544-20.264-21.212-11.345-38.337-20.66-38.256-20.811.081-.15 17.336 8.921 38.548 20.266 21.204 11.34 38.332 20.658 38.252 20.809zM402.276 181.89c-.081.151-17.34-8.923-38.544-20.264-21.212-11.344-38.337-20.66-38.256-20.811.08-.151 17.336 8.921 38.548 20.266 21.204 11.341 38.333 20.659 38.252 20.809zM396.216 193.222c-.081.151-17.339-8.923-38.544-20.264-21.212-11.344-38.337-20.66-38.256-20.811.081-.15 17.336 8.921 38.548 20.266 21.204 11.341 38.332 20.659 38.252 20.809z" style="fill:#e0e0e0"/><path d="M394.172 0h2.583v43.983h-2.583z" style="opacity:.2"/><path d="M335.233 97.189h120.461s-11.122-53.233-61.143-53.233c-44.493-.001-59.318 53.233-59.318 53.233z" style="fill:#e8505b"/><path d="M394.172 0h2.583v43.983h-2.583z" style="fill:#e8505b"/><path d="M663.667 439.828c0 .144-129.251.26-288.653.26-159.457 0-288.68-.117-288.68-.26 0-.144 129.223-.26 288.68-.26 159.402 0 288.653.117 288.653.26z" style="fill:#263238"/><path d="M118.286 377.201c3.381.119 6.555 1.954 8.785 4.499 2.23 2.544 3.597 5.743 4.472 9.012 1.692 6.323.652 13.786-1.151 20.078-6.846-2.447-11.067-9.747-12.976-13.586-3.018-6.066-4.787-18.862.87-20.003M140.242 418.454c-2.16-3.101-2.211-7.414-.503-10.786 1.707-3.372 4.988-5.803 8.601-6.913 1.671-.513 3.609-.729 5.062.242 1.359.907 1.946 2.688 1.77 4.312-.175 1.624-.998 3.111-1.969 4.425-3.329 4.507-7.378 8.257-12.961 8.72" style="fill:#e8505b"/><path d="M140.995 439.584c-.033.005-.137-.464-.306-1.314l-.704-3.604c-.54-3.03-1.397-7.339-.749-12.103.623-4.743 2.511-8.797 4.49-11.218.974-1.225 1.907-2.092 2.597-2.625.334-.281.628-.453.815-.585.191-.126.296-.185.306-.172.075.085-1.6 1.117-3.451 3.586-1.875 2.429-3.672 6.414-4.286 11.077-.638 4.667.152 8.937.609 11.983.245 1.53.442 2.77.556 3.631.113.861.155 1.34.123 1.344z" style="fill:#263238"/><path d="M120.494 386.826c.015-.007.11.172.276.518l.705 1.524a311.812 311.812 0 0 1 2.486 5.653 574.034 574.034 0 0 1 7.697 18.864 573.156 573.156 0 0 1 7.034 19.124 307.385 307.385 0 0 1 1.975 5.851l.506 1.601c.111.368.161.563.146.569-.016.005-.096-.18-.236-.538l-.59-1.572-2.117-5.799a1026.087 1026.087 0 0 0-7.161-19.065 1026.972 1026.972 0 0 0-7.564-18.905l-2.347-5.71-.624-1.559c-.136-.358-.201-.549-.186-.556z" style="fill:#263238"/><path d="M132.869 425.604c-4.037-6.869-11.575-11.553-19.522-12.129-2.024-.147-4.458.194-5.36 2.011-.904 1.82.305 3.975 1.684 5.468 5.736 6.213 15.44 8.379 23.274 5.195" style="fill:#e8505b"/><path d="M116.429 418.892c.002-.033.452-.014 1.267.047.408.028.907.064 1.478.171.57.106 1.233.168 1.939.365.711.174 1.495.348 2.307.641.828.245 1.678.599 2.571.977 1.764.801 3.635 1.849 5.417 3.212a27.416 27.416 0 0 1 4.478 4.431c.584.775 1.142 1.509 1.577 2.255.481.717.838 1.438 1.173 2.088.359.639.571 1.271.806 1.802.237.531.385 1.009.503 1.401.243.781.361 1.215.33 1.224-.101.035-.588-1.713-1.936-4.273-.35-.633-.719-1.333-1.207-2.03-.442-.726-1.004-1.439-1.587-2.194a28.479 28.479 0 0 0-4.426-4.328c-1.75-1.338-3.581-2.379-5.308-3.189-.874-.383-1.706-.746-2.517-1.003-.794-.304-1.564-.494-2.261-.688-2.805-.71-4.615-.806-4.604-.909zM570.361 105.475c-2.94.677-4.372 4.06-4.651 7.065-.279 3.004.104 6.177-1.157 8.918-1.42 3.085-4.812 5.359-4.925 8.754-.069 2.069 1.16 4.015 1.101 6.085-.097 3.399-3.563 5.968-3.745 9.364-.131 2.445 1.497 4.792 1.106 7.209-.305 1.881-1.769 3.363-2.388 5.165-1.234 3.593 1.234 7.548 4.449 9.57 3.583 2.254 8.171 2.835 12.202 1.547 4.032-1.288 7.433-4.423 9.045-8.336 1.779-4.319 1.39-9.182 1.004-13.836a1023.206 1023.206 0 0 1-2.686-43.581" style="fill:#263238"/><path d="M561.824 156.664c-.063-.057.804-.315 1.344-1.598.261-.627.395-1.471.342-2.441-.034-.976-.367-2.039-.729-3.238-.335-1.188-.772-2.567-.522-4.1.252-1.557 1.366-2.836 2.383-4.092.512-.637 1.026-1.299 1.35-2.052a3.309 3.309 0 0 0 .156-2.398c-.516-1.634-2.117-2.836-2.852-4.722-.364-.945-.368-1.983-.161-2.918.198-.944.58-1.801.965-2.617.783-1.628 1.645-3.121 1.987-4.706.702-3.172.374-6.2.852-8.687.433-2.492 1.486-4.365 2.529-5.328.508-.498 1-.763 1.321-.942.342-.147.522-.215.529-.198.034.056-.741.294-1.707 1.283-.964.975-1.931 2.807-2.309 5.246-.199 1.213-.228 2.577-.278 4.041-.052 1.463-.098 3.052-.47 4.694-.347 1.664-1.233 3.216-1.993 4.815-.752 1.571-1.443 3.413-.778 5.135.635 1.702 2.246 2.911 2.851 4.75a3.812 3.812 0 0 1-.187 2.749c-.367.834-.912 1.516-1.434 2.156-1.045 1.264-2.091 2.466-2.33 3.866-.25 1.392.136 2.735.451 3.924.335 1.189.658 2.309.666 3.326.027 1.008-.143 1.886-.447 2.535-.302.653-.715 1.057-1.025 1.262-.307.211-.504.255-.504.255z" style="fill:#455a64"/><path d="m553.951 180.366-9.027 26.022-37.643 2.018-6.277 13.968 39.3 3.976c7.837 3.24 16.791-.731 19.651-8.714l10.488-29.275-16.492-7.995zM631.814 425.697s-27.586-87.617-28.171-90.462c-.529-2.571 10.011-65.624 11.339-81.942l-37.274 1.39-.003.272-15.844.879 14.191 179.193h17.153l-1.701-59.451c10.577 28.397 25.734 57.335 25.734 57.335l14.576-7.214z" style="fill:#b78876"/><path d="M592.203 396.883c.015-.544-.208-19.919-.208-19.919-.214 1.159-6.576-16.823-6.422-17.916.079-.566 6.63 37.835 6.63 37.835z" style="fill:#a36957"/><path d="M584.847 350.535c-.039-.001-.076.385-.11 1.086-.037.7-.045 1.716.023 2.971.024.628.09 1.314.171 2.049.094.733.194 1.519.364 2.334.311 1.635.791 3.405 1.402 5.22 1.246 3.624 2.62 6.795 3.596 9.096l1.194 2.709c.293.635.472.98.509.965.037-.015-.073-.387-.303-1.048-.23-.661-.58-1.61-1.026-2.777-.88-2.339-2.195-5.534-3.429-9.126-.605-1.798-1.093-3.537-1.427-5.142-.181-.8-.297-1.571-.41-2.292-.1-.723-.188-1.397-.237-2.017a57.308 57.308 0 0 1-.203-2.942c-.037-.699-.075-1.086-.114-1.086z" style="fill:#a36957"/><path d="m575.729 435.91-.007-1.611 17.57-.766.048 6.645-1.084.073c-4.823.282-24.542 1.096-27.769.128-3.601-1.079 11.242-4.469 11.242-4.469z" style="fill:#455a64"/><path d="M593.584 439.776c0 .007-.103.019-.3.034l-.863.055-3.177.148a311.724 311.724 0 0 1-20.981.092l-3.178-.121-.863-.048c-.197-.013-.301-.024-.3-.031 0-.007.104-.011.302-.012l.865.008 3.178.053c2.684.044 6.392.086 10.488.068 4.095-.018 7.802-.092 10.485-.16l3.178-.081.865-.015c.197 0 .301.003.301.01z" style="fill:#263238"/><path d="M570.036 440.342c-.065.008-.117-.75-.599-1.514-.469-.773-1.124-1.158-1.087-1.212.012-.053.763.274 1.268 1.101.514.821.471 1.638.418 1.625zM575.185 437.707c-.049.031-.297-.268-.553-.669-.257-.401-.424-.751-.375-.783.049-.032.297.268.554.669.255.401.423.752.374.783zM576.597 436.953c-.039.044-.315-.139-.618-.409-.302-.27-.515-.523-.477-.567.039-.044.315.139.618.409.303.27.516.524.477.567zM577.486 435.3c.001.059-.407.112-.912.12-.504.007-.914-.034-.915-.092-.001-.059.407-.112.912-.12.505-.007.914.034.915.092zM577.789 434.136c.02.052-.424.254-1.017.3-.592.049-1.063-.082-1.051-.136.01-.06.472-.028 1.035-.075.562-.043 1.014-.147 1.033-.089z" style="fill:#263238"/><path d="M574.586 436.184c.002.024-.429.078-1.123-.003a6.588 6.588 0 0 1-1.197-.259c-.219-.077-.448-.135-.685-.28-.111-.074-.235-.178-.279-.348-.047-.168.042-.358.169-.45 1.072-.56 2.149.04 2.55.593.22.282.322.558.369.748.046.192.043.302.03.303-.04.015-.078-.442-.515-.956a2.027 2.027 0 0 0-.962-.62c-.397-.116-.962-.146-1.339.096-.178.133-.108.342.091.46.185.119.425.19.632.267.426.145.822.238 1.158.297.673.118 1.101.118 1.101.152z" style="fill:#263238"/><path d="M574.295 436.241c-.016.012-.183-.274-.132-.779a1.83 1.83 0 0 1 .304-.822c.197-.25.451-.595.933-.576.261.033.389.328.348.517-.02.197-.107.366-.189.503a3.42 3.42 0 0 1-.528.682c-.351.345-.629.478-.641.457-.02-.027.223-.202.531-.559.153-.178.32-.404.468-.676.153-.238.257-.665-.025-.715-.281-.026-.567.255-.738.48a1.84 1.84 0 0 0-.315.732c-.084.456.022.748-.016.756zM593.21 434.995c-.004.039-.501-.046-1.29.05-.782.09-1.87.415-2.814 1.172a5.649 5.649 0 0 0-1.752 2.495c-.264.75-.288 1.254-.328 1.249-.013-.001-.02-.126-.002-.353.017-.226.07-.553.187-.943a5.396 5.396 0 0 1 1.762-2.613 5.399 5.399 0 0 1 2.931-1.155c.407-.03.737-.011.961.021.226.03.347.064.345.077zM584.796 438.384c.007.055-1.133.237-2.553.243-1.421.01-2.562-.16-2.556-.215.006-.061 1.147.013 2.555.003 1.407-.006 2.547-.092 2.554-.031z" style="fill:#263238"/><path d="M588.221 438.347c.043.043-.093.242-.208.505-.119.261-.178.495-.239.491-.057 0-.091-.276.045-.578.135-.303.364-.46.402-.418zM589.506 436.735c.042.041-.07.223-.25.407-.18.184-.36.3-.402.259-.042-.041.07-.223.251-.407.179-.184.359-.3.401-.259zM591.351 435.994c-.012.059-.244.058-.501.15-.259.085-.441.229-.487.189-.047-.032.099-.281.418-.389.319-.111.587-.004.57.05zM592.665 435.643c.021.055-.079.145-.224.201-.145.057-.28.059-.301.004-.021-.054.079-.145.224-.201.145-.056.279-.058.301-.004z" style="fill:#263238"/><path d="m616.893 434.36-.667-1.467 15.715-7.895 2.766 6.042-.959.51c-4.284 2.233-21.94 11.052-25.28 11.492-3.726.49 8.425-8.682 8.425-8.682z" style="fill:#455a64"/><path d="M634.766 430.573c.003.007-.086.059-.26.154l-.765.404-2.837 1.437a308.26 308.26 0 0 1-9.478 4.499 308.764 308.764 0 0 1-9.625 4.179l-2.948 1.192-.807.31c-.185.069-.284.102-.287.095-.003-.007.09-.053.271-.134l.792-.347 2.921-1.253a510.385 510.385 0 0 0 9.596-4.234c3.728-1.694 7.08-3.28 9.5-4.441l2.866-1.376.782-.368c.179-.083.275-.124.279-.117z" style="fill:#263238"/><path d="M613.516 440.735c-.055.034-.414-.636-1.167-1.136-.744-.513-1.5-.596-1.489-.661-.01-.053.808-.063 1.608.485.805.539 1.101 1.302 1.048 1.312zM617.133 436.222c-.032.049-.381-.123-.779-.383-.398-.261-.695-.512-.663-.56.032-.049.381.123.779.383s.695.511.663.56zM618.113 434.956c-.018.056-.345.002-.731-.12s-.685-.266-.667-.322c.018-.056.345-.002.731.12s.684.266.667.322zM618.247 433.084c.025.053-.326.269-.782.483-.457.213-.848.343-.872.29-.025-.053.326-.269.783-.482.455-.214.846-.344.871-.291zM618.046 431.897c.039.039-.283.406-.805.69-.521.287-1.003.361-1.015.306-.016-.059.419-.219.913-.492.497-.269.866-.549.907-.504z" style="fill:#263238"/><path d="M615.963 435.078c.011.021-.36.247-1.026.457a6.625 6.625 0 0 1-1.198.254c-.232.019-.464.061-.74.026-.132-.022-.287-.066-.397-.203-.112-.134-.108-.343-.03-.479.748-.95 1.977-.844 2.569-.503a2 2 0 0 1 .643.531c.12.156.162.258.152.264-.03.03-.252-.371-.862-.661a2.018 2.018 0 0 0-1.131-.172c-.41.057-.937.261-1.182.636-.108.194.042.356.271.382.218.032.465 0 .686-.015a7.62 7.62 0 0 0 1.178-.204c.662-.169 1.053-.345 1.067-.313z" style="fill:#263238"/><path d="M615.721 435.249c-.009.018-.279-.175-.44-.657a1.843 1.843 0 0 1-.06-.874c.078-.309.168-.727.615-.908.251-.077.837.427.877.617.063.188-.296.091-.315.249a3.388 3.388 0 0 1-.202.838c-.179.459-.378.694-.398.68-.029-.017.121-.276.256-.728.067-.226.126-.5.15-.808.042-.28-.038-.712-.315-.642-.267.091-.413.465-.477.74-.06.294-.042.573.012.797.112.451.328.673.297.696zM632.466 426.364c.013.038-.476.163-1.157.574a5.638 5.638 0 0 0-2.087 2.221 5.637 5.637 0 0 0-.576 2.993c.066.793.251 1.262.213 1.274-.012.005-.07-.107-.146-.321a4.637 4.637 0 0 1-.216-.937 5.392 5.392 0 0 1 .537-3.105 5.407 5.407 0 0 1 2.201-2.255c.359-.194.668-.312.886-.375.217-.062.341-.081.345-.069zM626.178 432.903c.029.047-.936.68-2.229 1.267-1.292.591-2.403.903-2.42.851-.02-.058 1.052-.458 2.332-1.043 1.281-.582 2.286-1.129 2.317-1.075z" style="fill:#263238"/><path d="M629.287 431.466c.056.021.015.259.017.546-.002.287.04.524-.017.546-.052.023-.196-.214-.195-.546-.001-.332.143-.569.195-.546zM629.799 429.469c.055.02.027.232-.062.474-.089.242-.206.421-.26.401-.055-.02-.027-.232.062-.474.089-.241.206-.421.26-.401zM631.179 428.038c.013.059-.199.153-.396.341-.201.184-.309.389-.367.372-.056-.01-.025-.297.222-.527.246-.231.535-.243.541-.186zM632.234 427.179c.042.041-.013.164-.121.275-.109.111-.231.168-.273.127-.042-.041.013-.164.121-.275.109-.111.231-.168.273-.127z" style="fill:#263238"/><path d="m612.564 223.635-2.926-35.697 15.028.268s.696-5.263-1.518-16.809c-1.358-7.08-6.073-11.422-11.361-14.002l.001-.095-.459-.12c-6.725-3.148-13.765-3.592-13.765-3.592l-18.447.213s-14.092-1.758-21.892 8.288c-3.005 3.87-12.302 30.355-12.302 30.355l22.142 10.663-2.108-14.687s.419 10.649 1.778 14.023c.757 1.88 2.949 7.716 2.949 7.716l-.286 17.615 43.166-4.139z" style="fill:#e8505b"/><path d="m602.387 182.756-2.738 11.666h25.831l-1.699-19.558z" style="fill:#e8505b"/><path d="M625.48 194.422c.004-.077-1.302-.214-3.419-.338a134.969 134.969 0 0 0-8.284-.214c-3.238.016-6.168.156-8.283.324-2.115.167-3.416.346-3.41.421.006.082 1.317.045 3.432-.019 2.115-.065 5.036-.141 8.265-.157 3.227-.014 6.15.026 8.267.047 2.116.022 3.428.016 3.432-.064z" style="fill:#263238"/><path d="M601.273 174.768c-.079.003-.106 1.137-.086 2.967.02 1.831.086 4.357.194 7.147.108 2.79.238 5.315.361 7.142.122 1.826.238 2.954.316 2.951.079-.003.106-1.137.086-2.967-.019-1.83-.086-4.358-.194-7.148a265.23 265.23 0 0 0-.361-7.141c-.122-1.825-.237-2.954-.316-2.951z" style="fill:#263238"/><path d="M577.768 184.872s5.742 42.568 21.881 41.441c0 0 7.266-.086 9.603-4.916v-1.901l-31.484-34.624zM601.273 177.277l-3.089 20.868 2 3.662 3.293-7.16-1.394-.033z" style="opacity:.3"/><path d="M569.686 210.161c-.034.012-.188-.344-.436-.997a59.25 59.25 0 0 1-.97-2.794 84.928 84.928 0 0 1-2.47-9.445c-.742-3.747-1.106-7.193-1.224-9.691-.06-1.249-.079-2.261-.06-2.96.014-.699.038-1.085.074-1.085.083-.001.139 1.541.353 4.02.212 2.479.63 5.892 1.368 9.615.741 3.721 1.633 7.044 2.312 9.44l.81 2.838c.188.67.277 1.047.243 1.059zM576.212 222.393c-.138.042-.537-.877-.892-2.051-.355-1.175-.532-2.16-.394-2.202.138-.042.537.877.892 2.051.355 1.174.532 2.16.394 2.202zM578.443 222.23c-.133.034-.569-1.344-.59-3.112-.03-1.768.365-3.158.498-3.128.148.027-.008 1.414.022 3.12.02 1.706.218 3.089.07 3.12z" style="fill:#263238"/><path d="M567.516 203.596c-.064.129-5.217-2.316-11.508-5.46-6.293-3.145-11.341-5.797-11.276-5.926.064-.129 5.216 2.316 11.509 5.46 6.29 3.144 11.339 5.797 11.275 5.926z" style="fill:#263238"/><path d="M576.596 157.253c.115-5.059.144-10.387.144-10.387s-6.489-1.25-7.62-9.788c-1.078-8.142 1.938-27.247 1.938-27.247 9.478-3.583 19.328-.335 25.822 7.345l-1.612 41.074c-.187 4.768-4.436 8.405-9.54 8.166-5.156-.242-9.242-4.343-9.132-9.163z" style="fill:#b78876"/><path d="M570.565 125.1c-.035.575.423 1.079 1.023 1.127.599.048 1.114-.379 1.149-.954.035-.575-.423-1.08-1.022-1.128-.6-.048-1.115.38-1.15.955zM570.159 123.667c.132.146.974-.444 2.147-.411 1.173.016 2.018.642 2.149.502.064-.062-.067-.322-.435-.605-.362-.281-.985-.562-1.716-.578-.731-.015-1.353.238-1.713.505-.368.268-.497.522-.432.587zM582.471 125.841c-.035.575.423 1.08 1.023 1.128.599.048 1.114-.379 1.149-.954.035-.575-.423-1.08-1.022-1.128-.6-.049-1.115.379-1.15.954zM582.391 124.409c.132.146.975-.444 2.147-.411 1.172.017 2.018.643 2.149.502.064-.062-.066-.322-.435-.605-.362-.281-.985-.562-1.716-.578-.731-.015-1.353.238-1.713.505-.367.268-.496.522-.432.587zM577.908 133.001c.007-.067-.719-.211-1.897-.393-.299-.039-.581-.105-.626-.311-.065-.218.069-.538.223-.883l.945-2.259c1.314-3.217 2.274-5.865 2.144-5.917-.13-.052-1.301 2.513-2.615 5.73l-.908 2.273c-.122.338-.327.719-.186 1.172a.755.755 0 0 0 .481.451c.191.064.359.071.507.084 1.188.096 1.926.12 1.932.053z" style="fill:#263238"/><path d="M576.739 146.866s5.711.516 11.465-2.744c0 0-2.913 5.77-11.403 4.754l-.062-2.01z" style="fill:#a36957"/><path d="M586.147 121.024c-.241.367-1.133.204-2.133.024-.996-.201-1.886-.378-1.975-.808-.099-.412.934-.983 2.268-.727 1.334.254 2.084 1.164 1.84 1.511zM574.48 119.302c-.091.428-1.046.584-2.148.64-1.103.045-2.069-.023-2.198-.44-.132-.404.8-1.062 2.126-1.12 1.325-.064 2.314.505 2.22.92z" style="fill:#263238"/><path d="M577.927 135.81c-.247-.069-.525.072-.649.297a.687.687 0 0 0 .154.832.688.688 0 0 0 .846.011.688.688 0 0 0 .177-.827.69.69 0 0 0-.777-.335" style="fill:#a36957"/><path d="M578.202 135.926c.053-.047-.188-.335-.7-.223a.886.886 0 0 0-.641.629c-.094.342-.009.785.353 1.063a.99.99 0 0 0 1.125.007c.32-.21.41-.594.36-.834-.103-.527-.493-.611-.504-.538-.044.066.136.249.101.561a.443.443 0 0 1-.238.367c-.145.079-.376.079-.507-.022-.137-.098-.208-.316-.18-.484a.503.503 0 0 1 .269-.37c.278-.158.525-.084.562-.156zM592.95 127.208c-1.012 2.344-3.48 4.15-3.138 6.68.221 1.633 1.269 3.156 1.065 4.792-.256 2.054-2.39 3.478-2.692 5.526-.37 2.512 2.073 4.464 3.049 6.808 1.421 3.413-.397 7.252-.44 10.949-.065 5.663 4.75 10.953 10.394 11.418 2.283.188 4.855-.501 6.038-2.462.977-1.618.781-3.674 1.367-5.471.872-2.676 3.423-4.635 3.961-7.398.98-5.037-5.107-9.205-4.707-14.321.171-2.186 1.521-4.093 2.094-6.209.752-2.772.063-5.894-1.786-8.092-1.502-1.787-3.682-2.962-4.961-4.914-1.451-2.214-1.501-5.021-2.048-7.611-1.333-6.311-6.073-11.793-12.125-14.025-6.052-2.232-13.216-1.14-18.328 2.793 0 0-1.455 6.591 5.311 7.693 6.765 1.102 9.901-.17 10.664 2.542 0 0-.771 3.167 2.026 6.193 2.798 3.028 5.427 2.395 4.256 5.109z" style="fill:#263238"/><path d="M603.746 172.92c-.003.018-.214-.005-.617-.064a9.184 9.184 0 0 1-1.721-.464c-1.444-.528-3.491-1.678-5.235-3.875-.866-1.089-1.677-2.409-2.225-3.961-.56-1.543-.88-3.292-.909-5.134-.043-1.843.218-3.776.721-5.71.251-.968.578-1.934.957-2.893.374-.963.834-1.891 1.098-2.873.285-.979.246-1.979-.01-2.933-.261-.954-.705-1.851-1.137-2.738-.435-.886-.879-1.77-1.165-2.71-.291-.932-.4-1.937-.21-2.874.399-1.884 1.543-3.278 2.218-4.709.714-1.417.938-2.915.905-4.259a10.06 10.06 0 0 0-2.23-5.899c-.988-1.162-1.737-1.605-1.699-1.654 0 0 .793.375 1.853 1.522 1.016 1.146 2.269 3.188 2.444 6.015.06 1.393-.154 2.971-.884 4.464-.69 1.483-1.794 2.887-2.135 4.611-.351 1.737.471 3.526 1.362 5.267.436.888.898 1.806 1.18 2.827.28 1.014.321 2.16.013 3.204-.284 1.049-.754 1.989-1.119 2.929-.374.94-.696 1.885-.945 2.832-.499 1.892-.763 3.777-.734 5.572.012 3.605 1.249 6.756 2.944 8.874 1.661 2.168 3.624 3.338 5.02 3.915 1.411.573 2.272.659 2.26.718z" style="fill:#455a64"/><path d="M602.75 122.459c.003.033-.524.128-1.49.222-.962.079-2.383.191-4.119-.108-1.695-.31-3.839-1.142-5.197-3.153-.667-1.009-.931-2.23-1.365-3.357a5.538 5.538 0 0 0-2.278-2.811c-2.188-1.387-4.762-1.557-7.013-1.831-2.263-.255-4.388-.735-5.829-1.815-1.451-1.033-2.195-2.373-2.386-3.339a3.638 3.638 0 0 1-.078-1.128c.036-.257.064-.388.082-.385.064.001-.069.55.193 1.463.242.904.993 2.14 2.4 3.087 1.387.983 3.42 1.412 5.674 1.641 2.232.252 4.897.391 7.24 1.87 1.157.722 2.052 1.854 2.471 3.065.445 1.19.694 2.361 1.292 3.281 1.218 1.861 3.236 2.712 4.864 3.052 1.67.337 3.077.285 4.036.268.964-.034 1.499-.06 1.503-.022zM600.268 114.315c.005.025-.404.153-1.172.172-.762.021-1.902-.114-3.157-.711a7.066 7.066 0 0 1-1.858-1.292c-.6-.566-1.091-1.298-1.551-2.07-.902-1.521-1.77-3.397-3.64-4.172-1.832-.786-3.85-.611-5.603-.492-1.77.174-3.429.226-4.782-.04-1.362-.237-2.384-.801-2.951-1.323a3.368 3.368 0 0 1-.588-.66c-.112-.168-.163-.26-.148-.271.041-.032.28.321.865.774.582.451 1.566.934 2.883 1.117 1.317.21 2.902.127 4.68-.075 1.762-.139 3.84-.361 5.854.494.997.423 1.81 1.172 2.388 1.983.589.811 1.011 1.658 1.456 2.423.441.766.894 1.465 1.441 2.005a6.896 6.896 0 0 0 1.719 1.27 7.422 7.422 0 0 0 2.996.837c.745.044 1.162-.014 1.168.031zM606.73 170.762c-.051-.023.267-.667.636-1.898.366-1.227.73-3.071.667-5.36-.078-2.273-.625-5.023-2.133-7.636-.731-1.31-1.843-2.476-2.748-3.915-.45-.718-.837-1.523-1.007-2.414-.167-.892-.065-1.839.221-2.699.561-1.726 1.565-3.18 1.781-4.767.268-1.592-.536-3.044-1.297-4.336-.385-.658-.771-1.308-1.071-1.988a7.15 7.15 0 0 1-.565-2.088c-.152-1.39.01-2.667.113-3.813.289-2.284.077-4.161-.474-5.314-.533-1.167-1.232-1.517-1.181-1.565.005-.007.046.012.121.058.074.048.191.111.319.228.267.217.623.602.923 1.191.633 1.167.904 3.13.658 5.434-.081 1.151-.216 2.412-.052 3.729.133 1.329.818 2.583 1.621 3.884.389.658.8 1.345 1.088 2.125.296.773.431 1.657.301 2.525-.243 1.749-1.274 3.229-1.79 4.855-.269.812-.355 1.646-.208 2.448.151.802.503 1.549.931 2.239.858 1.382 1.975 2.572 2.73 3.944 1.535 2.715 2.052 5.544 2.085 7.867.018 2.339-.411 4.206-.841 5.43-.225.611-.413 1.079-.576 1.381-.149.306-.236.463-.252.455z" style="fill:#455a64"/><path d="M565.996 357.088s-6.735-63.842-7.122-87.433c-.387-23.59 10.606-46.866 10.606-46.866l43.083-1.822s8.516 23.936 8.668 33.99c.296 19.539-5.191 38.833-4.559 54.333l1.44 47.798" style="fill:#263238"/><path d="M619.555 278.603c.009.016-.235.2-.703.533l-.393.277c-.135.114-.266.258-.417.403-.302.29-.655.62-.96 1.075-1.392 1.704-2.406 4.748-3.371 8.545-.531 1.886-1.07 4.002-2.181 6.074-.298.505-.565 1.041-.957 1.512-.187.24-.357.497-.563.728l-.663.663c-.899.885-2.039 1.552-3.24 2.079-2.412 1.057-5.134 1.559-7.621 2.806-2.503 1.219-4.38 3.582-5.53 6.303-1.213 2.709-1.949 5.554-2.961 8.21-.994 2.635-2.348 5.201-4.497 6.821-2.132 1.679-4.768 2.063-7.05 2.21-2.32.135-4.468.068-6.394.36-1.919.266-3.62.874-4.823 1.82-1.206.949-1.91 2.137-2.241 3.155a4.723 4.723 0 0 0-.167 2.452c.111.562.269.83.234.845 0 0-.188-.252-.336-.82-.15-.559-.249-1.459.075-2.536.314-1.065 1.014-2.311 2.253-3.323 1.244-1.013 2.992-1.66 4.95-1.957 1.962-.32 4.134-.274 6.42-.427 2.26-.164 4.783-.56 6.788-2.16 2.03-1.544 3.336-4.012 4.312-6.62.995-2.625 1.726-5.474 2.963-8.243 1.161-2.769 3.151-5.282 5.774-6.544 2.586-1.284 5.31-1.77 7.661-2.792 1.172-.507 2.259-1.137 3.119-1.974l.637-.627c.198-.219.363-.466.544-.694.379-.447.641-.966.934-1.452 1.096-2 1.654-4.092 2.206-5.967 1.007-3.777 2.094-6.87 3.566-8.572.324-.453.695-.78 1.015-1.064.159-.141.299-.281.441-.391l.413-.261c.494-.31.755-.463.763-.447zM619.821 249.059c.018-.001.037.292.056.855.008.562-.059 1.396-.299 2.443-.5 2.082-2.021 4.94-4.867 7.526-1.407 1.299-3.105 2.554-5.046 3.685-1.93 1.146-4.06 2.236-6.242 3.469-2.174 1.236-4.416 2.634-6.386 4.49-1.996 1.834-3.491 4.245-4.837 6.797-1.36 2.549-2.564 5.143-4.195 7.389a17.692 17.692 0 0 1-2.734 3.024c-1.017.871-2.126 1.578-3.252 2.166-2.26 1.173-4.562 1.898-6.695 2.566-2.138.661-4.131 1.246-5.875 1.977-1.746.72-3.258 1.535-4.481 2.4-1.223.866-2.153 1.773-2.813 2.594-1.332 1.65-1.612 2.845-1.688 2.805-.017-.006.079-.284.278-.811a9.951 9.951 0 0 1 1.25-2.119c.646-.855 1.575-1.802 2.802-2.705 1.227-.902 2.75-1.752 4.508-2.503 1.757-.762 3.762-1.371 5.888-2.049 2.123-.684 4.398-1.421 6.601-2.579 1.098-.58 2.171-1.273 3.151-2.118a17.263 17.263 0 0 0 2.644-2.945c1.587-2.197 2.781-4.771 4.149-7.336 1.35-2.564 2.889-5.043 4.946-6.924 2.025-1.897 4.307-3.305 6.5-4.537 2.202-1.228 4.334-2.302 6.259-3.423 1.932-1.104 3.613-2.321 5.016-3.585 2.834-2.513 4.367-5.278 4.92-7.306.541-2.047.362-3.252.442-3.246zM559.092 273.036c-.008.003-.038-.062-.087-.194-.043-.133-.135-.326-.194-.595-.122-.534-.198-1.378.1-2.397.556-2.036 2.768-4.57 6.333-5.839 1.773-.609 3.785-.977 5.882-1.526 2.072-.558 4.33-1.34 6.016-3.073.837-.855 1.545-1.873 2.134-2.992.573-1.129 1.047-2.341 1.493-3.592.897-2.494 1.649-5.204 3.171-7.668 1.512-2.483 3.974-4.208 6.523-5.072 2.542-.934 5.106-1.348 7.485-1.897 2.386-.519 4.616-1.191 6.509-2.216a13.637 13.637 0 0 0 4.405-3.967 14.877 14.877 0 0 0 2.799-8.101c.047-2.063-.281-3.186-.213-3.196 0 0 .399 1.104.415 3.2-.016 2.061-.53 5.207-2.701 8.31a13.923 13.923 0 0 1-4.494 4.131c-1.941 1.073-4.217 1.772-6.612 2.307-2.391.564-4.939.989-7.414 1.907-2.49.857-4.803 2.49-6.26 4.871-1.469 2.373-2.224 5.053-3.131 7.563-.453 1.26-.938 2.492-1.533 3.651-.611 1.151-1.354 2.211-2.237 3.103-1.791 1.816-4.15 2.604-6.245 3.15-2.126.537-4.127.881-5.875 1.457-3.468 1.184-5.668 3.611-6.255 5.549a4.901 4.901 0 0 0-.191 2.317c.111.526.2.801.177.809zM616.116 327.019c.018-.002.041.213.069.628.024.413-.009 1.032-.184 1.805-.353 1.54-1.543 3.648-3.78 5.403a16.831 16.831 0 0 1-3.965 2.355c-1.527.654-3.215 1.172-4.978 1.722-1.762.55-3.611 1.125-5.408 1.975-1.811.829-3.482 2.042-4.922 3.59-1.459 1.528-2.718 3.197-4.114 4.671a18.789 18.789 0 0 1-4.609 3.606c-3.291 1.818-6.703 2.441-9.51 2.473a18.815 18.815 0 0 1-6.546-1.088 11.986 11.986 0 0 1-1.661-.712c-.37-.184-.559-.289-.551-.305.008-.016.213.057.594.209.377.162.938.389 1.682.616 1.476.46 3.698.988 6.474.911 2.755-.078 6.087-.729 9.282-2.524a18.508 18.508 0 0 0 4.471-3.537c1.368-1.452 2.621-3.121 4.109-4.681 1.465-1.578 3.226-2.854 5.08-3.691 1.846-.864 3.719-1.434 5.486-1.972 1.768-.537 3.448-1.037 4.952-1.661a16.74 16.74 0 0 0 3.905-2.246c2.212-1.678 3.407-3.683 3.812-5.165.396-1.499.24-2.384.312-2.382z" style="fill:#fafafa"/><path d="m611.205 194.464-8.331.197c-.547 2.806-1.884 4.726-1.884 4.726-6.966-12.092-12.367-28.292-13.708-34.803.195-.65.427-1.37.716-2.174.333-.928.047-2.686-.11-3.661-.234-1.45-.639-3.4-.761-4.303-.371-2.751-.814-3.183-1.774-2.872-1.305.423.535 7.726-.535 7.885-.575.085-1.278-2.417-1.482-4.47-.204-2.053-1.132-8.368-1.811-8.789-.995-.617-1.862.359-1.611 2.403.254 2.069.575 8.24-.51 8.323-1.069.082-1.966-10.387-1.966-10.387s.169-2.278-1.087-2.223c-2.266.098-.495 11.136-.301 12.182.136.727-1.042.861-1.145.071-.107-.813-.653-10.47-2.96-10.393-1.771.06 1.371 9.096.377 11.191-.994 2.094-1.685-7.114-3.375-6.987-.629.048-1.094.171.062 5.382.621 2.801 2.447 7.95 4.042 12.214 2.679 14.45 14.437 60.676 32.87 52.214 10.315-4.735 14.499-25.72 14.499-25.72l-9.215-.006z" style="fill:#b78876"/><path d="M575.657 157.204s.084.015.24-.033c.141-.043.42-.219.376-.578-.024-.62-.121-1.525-.265-2.694-.107-1.177-.459-2.589-.46-4.26-.014-.837.008-1.737.056-2.691.031-.477.039-.972.145-1.44.078-.453.382-.971.731-.909l.038.007.017-.001c.356-.016.634.261.748.685.125.405.156.883.131 1.339l-.001.019.001.013c.234 2.558.486 5.359 1.069 8.349.081.374.164.75.28 1.129.058.189.125.38.208.573.054.099.088.193.17.296.071.087.162.239.418.262.415-.031.535-.345.629-.525a3.02 3.02 0 0 0 .187-.615 9.43 9.43 0 0 0 .161-1.221c.11-1.631.053-3.295-.067-5.002-.039-.863-.251-1.723-.104-2.505.068-.385.229-.773.492-.933a.54.54 0 0 1 .43-.054.98.98 0 0 1 .238.103c.066.063.051.035.11.147.335.716.506 1.648.694 2.514a76.036 76.036 0 0 1 .851 5.464c.089.929.224 1.905.461 2.844.12.473.253.945.451 1.413.102.235.207.467.412.707.074.102.307.293.599.218.282-.094.362-.318.408-.449.162-.575.114-1.053.106-1.556-.021-.496-.063-.987-.104-1.477-.071-.842-.152-1.675-.18-2.496a8.392 8.392 0 0 1 .03-1.203c.025-.188.057-.382.122-.521a.453.453 0 0 1 .096-.149c.016-.016.026-.009.039-.025l.13-.037c.663-.274.884.649 1.06 1.393.154.776.251 1.577.407 2.366.263 1.575.6 3.14.775 4.645.072.745.126 1.52-.088 2.152l-.702 2.145-.021.064.015.067c1.219 5.377 2.907 10.188 4.474 14.459a151.374 151.374 0 0 0 4.563 10.97 113.495 113.495 0 0 0 3.506 6.931l1.041 1.788c.241.403.373.608.386.601.013-.008-.092-.228-.307-.645l-.964-1.827c-.813-1.61-2.013-3.953-3.36-6.984a164.19 164.19 0 0 1-4.439-10.99c-1.53-4.266-3.19-9.09-4.375-14.411l-.006.131.701-2.116c.269-.816.19-1.613.123-2.393-.179-1.564-.506-3.084-.767-4.666-.154-.782-.249-1.585-.41-2.405-.095-.409-.183-.821-.408-1.238-.108-.202-.276-.432-.552-.556-.279-.121-.565-.087-.789-.032l-.168.048c-.075.034-.169.074-.227.129a.972.972 0 0 0-.253.356c-.105.24-.135.461-.166.683-.05.439-.047.866-.035 1.29.029.848.111 1.687.182 2.526.041.488.082.974.103 1.453.017.467.034.983-.074 1.344-.025.105-.074.085-.017.136l.002.005.006.037-.002-.01a.08.08 0 0 1 .003-.035c.005-.009.027-.044.014-.046a.166.166 0 0 1-.06-.055 2.145 2.145 0 0 1-.306-.542 9.207 9.207 0 0 1-.424-1.327c-.23-.917-.359-1.827-.451-2.772a75.655 75.655 0 0 0-.87-5.508c-.206-.902-.339-1.769-.76-2.67-.026-.091-.204-.293-.314-.352a1.564 1.564 0 0 0-.372-.157 1.093 1.093 0 0 0-.846.117c-.496.328-.649.849-.739 1.301a4.739 4.739 0 0 0-.017 1.37c.05.427.091.845.125 1.268.126 1.684.189 3.341.091 4.925a8.888 8.888 0 0 1-.145 1.155 2.662 2.662 0 0 1-.152.518.693.693 0 0 1-.109.187c-.036.083-.068-.019-.065.116.051-.103.002-.046-.037-.132-.043-.047-.079-.137-.119-.207a5.176 5.176 0 0 1-.189-.513 13.079 13.079 0 0 1-.276-1.086c-.594-2.937-.873-5.745-1.13-8.285v.032c.022-.514-.012-1.005-.163-1.487-.076-.237-.188-.479-.391-.666a1.035 1.035 0 0 0-.741-.271l.055.006c-.402-.071-.695.172-.862.413-.172.248-.248.517-.307.777-.11.525-.108 1.024-.134 1.503a39.317 39.317 0 0 0-.015 2.713c.032 1.706.416 3.118.552 4.281.174 1.162.304 2.064.36 2.672.063.289-.17.475-.292.524-.141.058-.223.067-.221.079z" style="fill:#a36957"/><path d="M510.532 208.232s-2.767-.132-5.793.664c-5.164 1.359-14.079 6.761-14.448 13.436h6.475s-3.626 7.719-2.56 7.004c2.764-1.854 8.268-7.447 8.268-7.447l8.058-13.657z" style="fill:#b78876"/><path d="M598.858 92.044c-.143.013-.731-5.341-1.313-11.956-.582-6.618-.937-11.991-.794-12.003.143-.013.731 5.34 1.313 11.958.582 6.614.937 11.988.794 12.001zM627.266 68.411c.117.083-4.258 6.433-9.77 14.18-5.514 7.75-10.078 13.963-10.196 13.88-.117-.083 4.257-6.432 9.771-14.182 5.512-7.747 10.077-13.961 10.195-13.878zM639.068 97.188c.029.141-5.077 1.309-11.402 2.609-6.328 1.3-11.479 2.24-11.508 2.099-.029-.141 5.076-1.309 11.403-2.609 6.326-1.299 11.478-2.239 11.507-2.099z" style="fill:#263238"/><path d="m298.958 234.544-35.361 181.799-4.629 23.799 236.063-1.165c10.594-.052 19.983-9.459 23.392-23.435l41.859-171.637c2.587-10.61-3.09-21.645-11.133-21.636l-238.923.251c-5.275.007-9.887 4.929-11.268 12.024z" style="fill:#e8505b"/><path d="m298.958 234.544-35.361 181.799-4.629 23.799 236.063-1.165c10.594-.052 19.983-9.459 23.392-23.435l41.859-171.637c2.587-10.61-3.09-21.645-11.133-21.636l-238.923.251c-5.275.007-9.887 4.929-11.268 12.024z" style="opacity:.5"/><path d="m472.387 404.026-24.994-201.408c-1.024-8.253-7.598-14.409-15.36-14.383l-54.806.179c-4.056.013-7.945 1.738-10.827 4.801l-26.025 27.665-152.426.795c-9.315.049-16.471 8.862-15.236 18.765l23.206 186.153c1.027 8.241 7.589 14.389 15.34 14.373l265.647-.525c29.587.613 32.411-8.125 32.411-8.125-33.907 7.515-36.927-28.267-36.93-28.29z" style="fill:#e8505b"/><g style="opacity:.5"><path d="m357.842 363.717-8.959 9.622-69.003-62.075 8.96-9.622z" style="fill:#fff"/><path d="m345.128 299.509 9.902 8.907-62.435 67.057-9.902-8.908z" style="fill:#fff"/></g><path d="M510.32 103.785a1.869 1.869 0 0 1-1.131-1.636l-.399-9.284a1.862 1.862 0 0 1 2.292-1.896c1.492.352 3.138.027 4.515-.892 1.268-.846 2.119-2.092 2.334-3.419.216-1.322-.193-2.785-1.122-4.015-.995-1.317-2.465-2.204-3.941-2.373-3.011-.347-6.262 1.96-7.099 5.038a1.865 1.865 0 0 1-2.289 1.311 1.857 1.857 0 0 1-1.312-2.29c1.314-4.838 6.306-8.322 11.128-7.767 2.5.288 4.869 1.684 6.489 3.83 1.542 2.04 2.208 4.542 1.829 6.866-.382 2.345-1.82 4.503-3.946 5.922a9.757 9.757 0 0 1-5.06 1.652l.31 7.156a1.866 1.866 0 0 1-2.598 1.797zM513.055 107.577a1.527 1.527 0 1 1-3.046.208 1.527 1.527 0 0 1 3.046-.208z" style="fill:#e8505b"/><path d="M478.186 90.694c.012 0 .043-.206.09-.609l.196-1.788c.045-.791.247-1.747.484-2.874.132-.56.2-1.183.405-1.813l.62-2.019c.968-2.808 2.461-6.176 4.973-9.526 2.494-3.343 6.001-6.646 10.502-9.148 2.217-1.322 4.752-2.243 7.41-3.056 2.699-.639 5.56-1.187 8.549-1.116 1.495-.08 3.002.139 4.538.268.767.073 1.522.278 2.293.412.771.142 1.546.293 2.301.555 3.087.792 6.086 2.248 8.944 4.053 5.737 3.609 10.568 9.481 13.218 16.599 1.329 3.561 1.965 7.465 1.96 11.408.079 3.951-.686 7.964-2.092 11.742l-.451 1.142-.059.151.061.141 7.351 16.933.421-.478-14.976-5.754-.185-.071-.145.141a33.49 33.49 0 0 1-14.142 8.165c-5.04 1.421-10.116 1.494-14.733.673a32.942 32.942 0 0 1-12.267-4.864c-3.484-2.275-6.278-5.041-8.432-7.852-2.138-2.842-3.546-5.756-4.61-8.359-.936-2.66-1.51-5.021-1.788-6.975l-.314-2.601-.05-1.911-.039-1.171c-.012-.263-.023-.398-.033-.398-.009 0-.017.133-.024.397l-.015 1.174c-.001.529-.003 1.17-.003 1.922l.265 2.622c.246 1.973.792 4.363 1.709 7.062 1.044 2.641 2.443 5.604 4.585 8.5a34.52 34.52 0 0 0 8.492 8.019 33.332 33.332 0 0 0 12.429 5.005c4.686.854 9.847.801 14.98-.629 5.118-1.426 10.182-4.185 14.426-8.281l-.331.07 14.968 5.777.755.291-.333-.769-7.342-16.937.002.291.461-1.167c1.438-3.861 2.217-7.966 2.136-12.004.003-4.03-.653-8.021-2.015-11.658-2.715-7.271-7.658-13.246-13.51-16.908-2.915-1.832-5.974-3.302-9.117-4.1-.769-.263-1.558-.414-2.342-.556-.784-.134-1.553-.339-2.333-.411-1.561-.125-3.094-.34-4.612-.253-3.038-.058-5.944.51-8.68 1.175-2.696.839-5.263 1.79-7.505 3.144-4.551 2.567-8.081 5.942-10.576 9.349-2.514 3.413-3.987 6.836-4.924 9.682l-.595 2.045c-.197.638-.256 1.267-.378 1.833-.217 1.14-.399 2.104-.422 2.901l-.13 1.8c-.025.406-.032.613-.021.614z" style="fill:#263238"/></svg>