<svg xmlns="http://www.w3.org/2000/svg" viewBox="0 0 500 500" style="enable-background:new 0 0 500 500" xml:space="preserve"><path style="fill:#ebebeb" d="M0 382.398h500v.25H0zM416.779 398.494h33.122v.25h-33.122zM292.749 398.619h8.693v.25h-8.693zM354.333 389.208h61.445v.25h-61.445zM212.454 395.111h12.693v.25h-12.693zM166.717 395.111h36.833v.25h-36.833zM52.459 390.888h25.43v.25h-25.43zM83.889 390.888h74.889v.25H83.889zM237.014 337.8H43.915a5.715 5.715 0 0 1-5.708-5.708V60.66a5.715 5.715 0 0 1 5.708-5.708h193.099a5.715 5.715 0 0 1 5.707 5.708v271.432a5.715 5.715 0 0 1-5.707 5.708zM43.915 55.203a5.464 5.464 0 0 0-5.458 5.458v271.432a5.464 5.464 0 0 0 5.458 5.458h193.099a5.463 5.463 0 0 0 5.457-5.458V60.66a5.464 5.464 0 0 0-5.457-5.458H43.915zM453.31 337.8H260.212a5.714 5.714 0 0 1-5.707-5.708V60.66a5.715 5.715 0 0 1 5.707-5.708H453.31a5.714 5.714 0 0 1 5.708 5.708v271.432a5.714 5.714 0 0 1-5.708 5.708zM260.212 55.203a5.463 5.463 0 0 0-5.457 5.458v271.432a5.463 5.463 0 0 0 5.457 5.458H453.31a5.464 5.464 0 0 0 5.458-5.458V60.66a5.464 5.464 0 0 0-5.458-5.458H260.212z"/><path transform="rotate(-180 312.299 160.739)" style="fill:#e6e6e6" d="M190.779 71.973h243.04v177.533h-243.04z"/><path transform="rotate(-180 305.68 160.739)" style="fill:#f0f0f0" d="M180.034 71.973h251.292v177.533H180.034z"/><path transform="rotate(90 305.68 160.739)" style="fill:#fafafa" d="M231.956 50.135h147.448v221.207H231.956z"/><path style="fill:#fff" d="M362.512 234.463 312.154 87.015h-48.09l50.359 147.448zM304.092 234.463 253.734 87.015h-18.748l50.359 147.448z"/><path transform="rotate(90 196.031 160.739)" style="fill:#e6e6e6" d="M122.308 159.784h147.448v1.91H122.308z"/><path transform="rotate(-180 107.486 140.38)" style="fill:#e0e0e0" d="M64.576 79.544h85.819v121.671H64.576z"/><path transform="rotate(-180 102.729 140.38)" style="fill:#f5f5f5" d="M58.498 79.544h88.462v121.671H58.498z"/><path transform="rotate(90 102.73 140.38)" style="fill:#fff" d="M51.482 104.88h102.494v70.998H51.482z"/><path style="fill:#e6e6e6" d="M97.93 286.396c6.371-15.718 21.522-21.57 26.756-31.494 6.858-13.003 6.819-32.508.98-39.547-5.073-6.116-21.874 35.242-23.766 39.863-6.509 15.893-8.401 27.687-9.621 39.114.139-9.713.272-18.631.381-25.512.356-22.443.801-29.662 1.004-31.883.701-1.085 1.53-2.349 2.011-3.027 4.066-5.732 13.087-12.556 17.595-20.889 6.583-12.167 5.519-26.729.902-32.151-4.828-5.669-13.362 7.73-17.894 21.007-4.531 13.277-2.595 25.985-3.866 37.011-.266 2.163-.539 10.377-.795 21.771-1.375-12.26-4.113-20.473-9.187-28.127-6.241-9.414-11.629-20.877-16.772-19.395-5.142 1.482-2.374 16.649 1.694 27.298 3.623 9.483 21.497 18.941 24.13 26.566-.31 15.444-.587 35.011-.784 53.228-1.409-9.41-.44-10.2-6.214-24.606-3.433-8.565-17.506-19.127-19.184-13.242-1.647 5.775.873 17.007 6.186 24.796 4.286 6.284 13.795 6.277 15.995 10.176.513.91 2.211 4.397 3.18 6.402-.23 22.241-.332 41.873-.219 48.567l.922.067c-.044-1.728.067-13.042.248-28.014 2.309-7.967 17.854-12.617 22.656-20.902 5.026-8.67 8.637-18.788 6.482-25.563-1.797-5.648-15.963 2.033-21.712 11.393-3.829 6.234-6.168 12.888-7.26 21.827.131-10.199.28-21.157.425-31.499 1.164-2.579 3.818-8.524 5.727-13.235z"/><path style="fill:#f0f0f0" d="M107.059 382.398H74.384a3.753 3.753 0 0 1-3.678-3.007l-2.32-11.436h44.672l-2.32 11.436a3.753 3.753 0 0 1-3.679 3.007z"/><path style="fill:#f0f0f0" d="M113.992 372.389H67.451a2.19 2.19 0 0 1-2.177-1.946l-.952-8.454a2.19 2.19 0 0 1 2.177-2.436h48.444a2.19 2.19 0 0 1 2.177 2.436l-.952 8.454a2.19 2.19 0 0 1-2.176 1.946z"/><path transform="rotate(-180 410.632 321.363)" style="fill:#f0f0f0" d="M405.637 267.616h9.989v107.492h-9.989z"/><path transform="rotate(-180 306.926 378.69)" style="fill:#f0f0f0" d="M202.062 375.109h209.729v7.164H202.062z"/><path style="fill:#f5f5f5" d="M198.226 267.616h207.411v107.492H198.226z"/><path transform="rotate(-180 413.15 264.229)" style="fill:#e0e0e0" d="M407.988 260.841h10.323v6.775h-10.323z"/><path style="fill:#ebebeb" d="M195.542 260.841h212.446v6.775H195.542z"/><path style="fill:#fff" d="M390.751 314.041h-177.64c-4.428 0-8.03-3.602-8.03-8.031v-23.02c0-4.429 3.603-8.031 8.03-8.031h177.64c4.429 0 8.031 3.602 8.031 8.031v23.02c0 4.429-3.602 8.031-8.031 8.031zm-177.64-37.082a6.038 6.038 0 0 0-6.03 6.031v23.02a6.038 6.038 0 0 0 6.03 6.031h177.64a6.038 6.038 0 0 0 6.031-6.031v-23.02a6.038 6.038 0 0 0-6.031-6.031h-177.64zM390.751 362.191h-177.64c-4.428 0-8.03-3.603-8.03-8.031v-23.02c0-4.429 3.603-8.031 8.03-8.031h177.64c4.429 0 8.031 3.603 8.031 8.031v23.02c0 4.429-3.602 8.031-8.031 8.031zm-177.64-37.082a6.038 6.038 0 0 0-6.03 6.031v23.02a6.038 6.038 0 0 0 6.03 6.031h177.64a6.038 6.038 0 0 0 6.031-6.031v-23.02a6.038 6.038 0 0 0-6.031-6.031h-177.64z"/><path style="fill:#fff" d="M350.382 298.042h-96.9a2.6 2.6 0 0 1-2.597-2.597v-1.892a2.6 2.6 0 0 1 2.597-2.597h96.9a2.6 2.6 0 0 1 2.597 2.597v1.892a2.6 2.6 0 0 1-2.597 2.597zm-96.9-5.085a.605.605 0 0 0-.597.597v1.892c0 .323.273.597.597.597h96.9a.605.605 0 0 0 .597-.597v-1.892a.605.605 0 0 0-.597-.597h-96.9zM350.382 346.192h-96.9a2.6 2.6 0 0 1-2.597-2.597v-1.892a2.6 2.6 0 0 1 2.597-2.597h96.9a2.6 2.6 0 0 1 2.597 2.597v1.892a2.6 2.6 0 0 1-2.597 2.597zm-96.9-5.085a.605.605 0 0 0-.597.597v1.892c0 .323.273.597.597.597h96.9a.605.605 0 0 0 .597-.597v-1.892a.605.605 0 0 0-.597-.597h-96.9z"/><ellipse style="fill:#f5f5f5" cx="245" cy="416.238" rx="193.889" ry="11.323"/><path transform="rotate(-86.302 375.086 170.723)" style="fill:#407bff" d="M372.131 170.219h5.902v1h-5.902z"/><path transform="rotate(-86.308 376.2 153.56)" style="fill:#407bff" d="M366.497 153.054h19.393v1h-19.393z"/><path style="fill:#407bff" d="M364.44 115.736H246.886c-6.158 0-11.522 5.038-11.921 11.196l-15.182 234.499c-.399 6.158 4.313 11.196 10.471 11.196h117.554c6.158 0 11.522-5.038 11.921-11.196l15.182-234.499c.399-6.158-4.313-11.196-10.471-11.196z"/><path style="opacity:.7;fill:#fff" d="M360.708 115.736H246.886c-6.158 0-11.522 5.038-11.921 11.196l-15.182 234.499c-.399 6.158 4.313 11.196 10.471 11.196h113.823c6.158 0 11.522-5.038 11.921-11.196l15.182-234.499c.398-6.158-4.314-11.196-10.472-11.196z"/><path style="fill:#fff" d="M351.112 355.3H225.906a3.423 3.423 0 0 1-3.416-3.644l13.738-212.192a3.423 3.423 0 0 1 3.416-3.202H364.85a3.423 3.423 0 0 1 3.416 3.644l-13.738 212.192a3.423 3.423 0 0 1-3.416 3.202zM323.288 129.316H277.78a1.68 1.68 0 0 1-1.697-1.814 1.964 1.964 0 0 1 1.932-1.814h45.508a1.68 1.68 0 0 1 1.697 1.814 1.964 1.964 0 0 1-1.932 1.814zM287.768 364.215c-.127 2.462-2.226 4.457-4.688 4.457-2.462 0-4.354-1.996-4.227-4.457.127-2.462 2.226-4.458 4.688-4.458 2.462 0 4.355 1.996 4.227 4.458z"/><path style="opacity:.2;fill:#407bff" d="M337.471 195.036H230.556l-6.792 104.907h113.707c6.158 0 11.196-5.038 11.196-11.196v-82.516c0-6.157-5.038-11.195-11.196-11.195z"/><path style="fill:#407bff" d="M327.513 290.614h-131.03c-6.158 0-11.196-5.038-11.196-11.196v-82.516c0-6.158 5.038-11.196 11.196-11.196h131.031c6.158 0 11.196 5.038 11.196 11.196v82.516c-.001 6.158-5.039 11.196-11.197 11.196zM181.713 184.503a.997.997 0 0 1-.707-.293l-1.793-1.793a.999.999 0 1 1 1.414-1.414l1.793 1.793a.999.999 0 0 1-.707 1.707zM179.011 190.778h-2.535a1 1 0 1 1 0-2h2.535a1 1 0 1 1 0 2zM188.077 181.798a1 1 0 0 1-.996-.929l-.181-2.529a1 1 0 0 1 .926-1.069.992.992 0 0 1 1.068.926l.181 2.529a1 1 0 0 1-.998 1.072z"/><path style="fill:#407bff" d="m273.194 279.833 40.221 40.221v-40.221z"/><path style="fill:#fff" d="m284.218 262.209-1.948-8.493a15.31 15.31 0 0 1-.017-6.772l2.71-12.098c2.416-10.786-3.058-21.562-12.543-26.304.081-.225.173-.444.227-.683a5.725 5.725 0 0 0-11.171-2.503c-.054.239-.063.477-.086.715-10.602.242-20.151 7.652-22.567 18.438l-2.71 12.098a15.334 15.334 0 0 1-2.905 6.118l-5.386 6.85c-2.296 2.921-.759 7.239 2.867 8.051l47.501 10.642c3.626.812 6.859-2.437 6.028-6.059zM248.345 264.832c-1.563-.35-2.967 1.006-2.698 2.585a8.215 8.215 0 0 0 14.836 3.324c.917-1.313.226-3.139-1.337-3.489l-10.801-2.42zM211.867 247.981c-.484 0-.959-.234-1.248-.667-4.759-7.127-6.457-15.679-4.782-24.082 1.675-8.403 6.522-15.651 13.648-20.409a1.5 1.5 0 0 1 1.666 2.496c-6.46 4.313-10.854 10.883-12.372 18.5-1.518 7.617.021 15.37 4.334 21.83a1.5 1.5 0 0 1-1.246 2.332z"/><path style="fill:#fff" d="M218.225 243.736c-.484 0-.959-.234-1.248-.667-3.624-5.428-4.918-11.942-3.642-18.343 1.275-6.4 4.968-11.921 10.395-15.545a1.501 1.501 0 0 1 1.666 2.496 21.297 21.297 0 0 0-9.12 13.636 21.299 21.299 0 0 0 3.194 16.091 1.5 1.5 0 0 1-1.245 2.332z"/><path style="fill:#fff" d="M224.583 239.492c-.484 0-.959-.234-1.248-.667a16.673 16.673 0 0 1-2.503-12.604 16.68 16.68 0 0 1 7.143-10.682 1.501 1.501 0 0 1 1.666 2.496 13.696 13.696 0 0 0-5.866 8.773 13.695 13.695 0 0 0 2.055 10.352 1.5 1.5 0 0 1-1.247 2.332zM298.348 269.093a1.501 1.501 0 0 1-.689-2.833c6.902-3.563 12.003-9.601 14.364-17 2.36-7.4 1.697-15.276-1.866-22.178a1.5 1.5 0 0 1 2.666-1.376c3.931 7.613 4.662 16.302 2.058 24.465-2.604 8.164-8.232 14.824-15.845 18.755a1.51 1.51 0 0 1-.688.167z"/><path style="fill:#fff" d="M294.841 262.301a1.5 1.5 0 0 1-.689-2.833 21.295 21.295 0 0 0 10.588-12.531 21.298 21.298 0 0 0-1.376-16.348 1.5 1.5 0 0 1 2.666-1.376 24.272 24.272 0 0 1 1.567 18.635c-1.983 6.218-6.27 11.291-12.068 14.286a1.507 1.507 0 0 1-.688.167z"/><path style="fill:#fff" d="M291.334 255.508a1.5 1.5 0 0 1-.689-2.832 13.695 13.695 0 0 0 6.811-8.062 13.696 13.696 0 0 0-.885-10.517 1.5 1.5 0 1 1 2.666-1.376c4.247 8.226 1.01 18.373-7.216 22.621-.22.112-.455.166-.687.166z"/><path style="fill:#407bff" d="M203.359 125.847h-7.64a.83.83 0 0 0-.804.728l-1.602 15.24c-.042.4.251.728.651.728h7.64a.83.83 0 0 0 .804-.728l1.602-15.24a.645.645 0 0 0-.651-.728z"/><path style="opacity:.4;fill:#fff" d="M202.672 125.847h-6.953a.83.83 0 0 0-.804.728l-1.602 15.24c-.042.4.251.728.651.728h6.953a.83.83 0 0 0 .804-.728l1.602-15.24a.645.645 0 0 0-.651-.728z"/><path style="fill:#407bff" d="M165.07 407.647c1.039 0 2.037-.143 2.353-.61.111-.163.191-.442-.053-.838a1.011 1.011 0 0 0-.627-.449c-1.364-.366-4.123 1.246-4.24 1.315a.185.185 0 0 0-.085.197c.016.079.08.142.159.157.52.104 1.524.228 2.493.228zm1.215-1.57c.135 0 .261.014.373.044a.614.614 0 0 1 .387.268c.146.238.102.356.056.424-.354.523-2.4.535-3.915.323.734-.386 2.153-1.059 3.099-1.059z"/><path style="fill:#407bff" d="M162.614 407.424a.192.192 0 0 0 .078-.017c.958-.439 2.818-2.19 2.63-3.105-.044-.215-.208-.483-.738-.536a1.35 1.35 0 0 0-1.049.329c-.993.846-1.116 3.027-1.121 3.12a.2.2 0 0 0 .2.209zm1.832-3.283c.038 0 .076.002.115.006.347.035.375.171.383.216.113.549-1.142 1.926-2.113 2.525.076-.637.307-1.942.96-2.497a.975.975 0 0 1 .655-.25z"/><path style="fill:#ff8b7b" d="M153.694 388.479h8.098v18.752h-8.098zM94.948 398.294l8.088.875 5.277-18.203-8.088-.875z"/><path style="fill:#407bff" d="M106.799 401.013c1.018.256 2.031.365 2.456-.004.149-.129.296-.376.155-.816a1.015 1.015 0 0 0-.504-.585c-1.246-.688-4.348.177-4.48.214a.18.18 0 0 0-.132.168.203.203 0 0 0 .117.19c.485.228 1.439.595 2.388.833zm1.579-1.205c.132.033.252.078.354.134.164.09.266.206.313.353.084.264.012.367-.05.42-.476.414-2.484-.079-3.916-.657.815-.188 2.372-.483 3.299-.25z"/><path style="fill:#407bff" d="M104.447 400.193a.18.18 0 0 0 .08.003c1.047-.184 3.302-1.404 3.344-2.327.01-.217-.085-.514-.59-.696a1.39 1.39 0 0 0-1.109.056c-1.182.566-1.842 2.626-1.869 2.713a.197.197 0 0 0 .042.188.204.204 0 0 0 .102.063zm2.607-2.694c.037.009.075.021.112.034.331.119.325.256.322.301-.025.554-1.595 1.564-2.695 1.898.232-.592.781-1.785 1.558-2.156a1.01 1.01 0 0 1 .703-.077z"/><path style="fill:#263238" d="m103.47 398.421-8.847-2.539a.68.68 0 0 0-.802.339l-3.262 6.465c-.338.671.065 1.513.812 1.714 3.102.834 4.646 1.086 8.537 2.203 2.394.687 7.264 2.348 10.569 3.296 3.233.928 4.534-2.155 3.253-2.835-5.744-3.052-7.583-5.515-9.1-7.797a2.077 2.077 0 0 0-1.16-.846zM161.704 406.294h-8.843a.668.668 0 0 0-.665.553l-1.285 7.198a1.236 1.236 0 0 0 1.228 1.44c3.188-.054 7.789-.241 11.798-.241 4.688 0 7.252.256 12.75.256 3.324 0 4.1-3.361 2.695-3.665-6.395-1.386-10.078-1.534-15.7-4.91-.61-.367-1.279-.631-1.978-.631z"/><path style="opacity:.2" d="M153.687 388.484h8.101v9.666h-8.101zM100.222 380.096l8.091.876-2.931 10.097-7.884-1.591z"/><path style="fill:#407bff" d="M148.467 202.029s-4.463 61.11-8.494 84.294c-4.414 25.388-30.069 103.125-30.069 103.125L95.2 386.765s18.528-73.004 20.581-98.141c2.228-27.281 4.909-83.517 4.909-83.517l27.777-3.078z"/><path style="opacity:.3" d="M140.936 227.405c.809-3.367 2.647.864 4.784 8.196-1.617 18.141-3.732 39.152-5.748 50.726-.454 2.592-1.13 5.737-1.971 9.292.742-25.883.765-59.132 2.935-68.214z"/><path style="fill:#407bff" d="M163.738 200.336s5.877 61.462 6.076 86.156c.207 25.685-5.086 109.786-5.086 109.786H151.01s-4.116-82.6-5.829-107.826c-1.868-27.5-9.74-84.981-9.74-84.981l28.297-3.135z"/><path style="fill:#263238" d="M113.005 384.501c.063.011-2.303 5.324-2.303 5.324l-16.543-3.018 1.004-4.943 17.842 2.637zM167.128 390.815c.063 0-.525 5.695-.525 5.695h-16.687l-.673-5.083 17.885-.612z"/><path style="fill:#ff8b7b" d="M121.119 145.56c-1.098 2.135-2.306 4.371-3.413 6.583l-3.359 6.656a354.607 354.607 0 0 0-3.184 6.678c-.995 2.234-1.972 4.457-2.837 6.676l-.075-3.505c.62 1.755 1.234 3.547 2.102 5.265.391.876.883 1.714 1.317 2.586.495.841.97 1.699 1.513 2.525a56.72 56.72 0 0 0 3.436 4.907c.623.792 1.244 1.594 1.904 2.361.645.748 1.377 1.546 1.961 2.195l.201.223a2.883 2.883 0 0 1-3.546 4.447 32.843 32.843 0 0 1-3.027-1.904 48.984 48.984 0 0 1-2.78-2.085 47.045 47.045 0 0 1-5.058-4.814c-1.572-1.739-3.054-3.599-4.349-5.614-1.34-1.984-2.457-4.149-3.463-6.377a4.371 4.371 0 0 1-.214-3.031l.139-.474a103.024 103.024 0 0 1 2.553-7.622 143.065 143.065 0 0 1 2.998-7.299 158.905 158.905 0 0 1 3.34-7.081c1.199-2.33 2.35-4.61 3.707-6.939a5.8 5.8 0 0 1 10.175 5.559l-.041.084z"/><path style="fill:#263238" d="M126.863 142.019c.398 7.626-8.263 21.64-8.263 21.64l-17.832-8.91s3.042-9.665 9.877-17.227c9.44-10.441 15.849-2.566 16.218 4.497z"/><path style="fill:#ff8b7b" d="m114.777 191.735 3.59 6.002 7.47-4.78s-1.985-3.817-5.807-5.227c-1.136-.419-2.424.121-3.038 1.268l-2.215 2.737z"/><path style="fill:#ff8b7b" d="m121.363 200.291 3.471-.65a2.251 2.251 0 0 0 1.795-2.645l-.792-4.039-7.47 4.78.506 1.209a2.25 2.25 0 0 0 2.49 1.345z"/><path style="fill:#263238" d="M142.425 103.66c.078.655.484 1.158.906 1.125.422-.034.701-.591.622-1.246-.078-.655-.484-1.158-.906-1.125-.421.033-.7.591-.622 1.246z"/><path style="fill:#ff5652" d="M142.85 104.823s1.919 3.66 3.753 5.354c-1.013 1.171-3.014.831-3.014.831l-.739-6.185z"/><path style="fill:#263238" d="M139.627 100.212a.363.363 0 0 0 .289-.088c1.239-1.1 2.58-.73 2.636-.715a.366.366 0 0 0 .462-.261.402.402 0 0 0-.276-.478c-.07-.022-1.787-.512-3.339.866a.385.385 0 0 0-.022.543.402.402 0 0 0 .25.133z"/><path style="fill:#ff8b7b" d="M122.271 110.902c1.912 5.784 4.451 16.463.825 20.735 0 0 2.38 5.83 13.349 4.906 12.061-1.016 4.998-6.451 4.998-6.451-6.784-1.012-7.239-5.892-6.679-10.558l-12.493-8.632z"/><path style="fill:#407bff" d="M120.513 133.753c-1.137-1.81-2.396-3.883-.255-4.654 2.356-.848 15.549-2.229 20.248-1.073 4.699 1.156 3.747 4.982 3.747 4.982l-23.74.745z"/><path style="fill:#ff8b7b" d="M159.16 136.19c1.721 1.582 3.581 3.326 5.429 4.931a286.615 286.615 0 0 0 5.602 4.821 172.22 172.22 0 0 0 5.728 4.519c1.942 1.408 3.887 2.766 5.854 3.956l-4.012-.374c1.483-.374 3.083-1.089 4.646-2.154a29.7 29.7 0 0 0 4.57-3.88c1.478-1.482 2.869-3.143 4.212-4.872a67.347 67.347 0 0 0 1.969-2.657c.619-.893 1.264-1.869 1.816-2.705l.109-.165a2.889 2.889 0 0 1 5.185 2.397 37.911 37.911 0 0 1-1.24 3.577 50.937 50.937 0 0 1-1.479 3.419c-1.088 2.243-2.34 4.434-3.827 6.545-1.499 2.095-3.204 4.144-5.303 5.971-2.085 1.824-4.58 3.477-7.543 4.521a4.765 4.765 0 0 1-3.68-.211l-.332-.163a72.246 72.246 0 0 1-7.217-4.087 105.018 105.018 0 0 1-6.595-4.637 122.204 122.204 0 0 1-6.173-5.032c-1.996-1.774-3.92-3.479-5.868-5.466a5.8 5.8 0 0 1 8.055-8.339l.094.085z"/><path style="fill:#263238" d="M153.055 131.007s10.075 9.783 11.241 70.278c-16.111 3.903-31.627 5.344-43.605 3.822-.575-7.589-1.419-33.925-9.122-61.699-1.373-4.951 1.743-10.014 6.788-10.988a82.912 82.912 0 0 1 4.74-.782c5.481-.729 13.442-1.577 18.346-1.544 6.465.042 11.612.913 11.612.913z"/><path style="fill:#263238" d="M145.228 141.54c.967 7.575 13.953 22.119 13.953 22.119l15.433-15.995s-6.674-7.18-14.827-13.298c-11.259-8.446-15.455.158-14.559 7.174z"/><path style="fill:#ff8b7b" d="m199.324 142.659 5.157-4.724-6.186-6.355s-3.34 2.713-3.952 6.74c-.182 1.197.607 2.35 1.854 2.721l3.127 1.618zM206.38 134.486l-1.335-3.269a2.25 2.25 0 0 0-2.952-1.226l-3.797 1.588 6.186 6.355 1.083-.738a2.252 2.252 0 0 0 .815-2.71zM120.728 103.979c1.448 8.001 1.896 12.741 6.393 16.55 6.765 5.73 16.111 1.272 17.043-6.903.839-7.358-1.67-19.207-9.813-21.791-8.022-2.546-15.071 4.143-13.623 12.144z"/><path style="fill:#263238" d="M136.504 106.877c2.811.647 5.027-2.602 5.291-3.528-1.367.132-3.792-.573-4.277-1.191 1.499.132 2.954-1.72 3.131-2.425-1.632-.22-3.439-1.632-3.924-2.558 2.425-.044 5.351-4.321 2.675-8.158-2.675-3.836-13.831-.617-15.419-3.351-2.337 1.367-.265 3.175-.265 3.175s-15.786 2.954-8.51 9.084c-5.335.485-6.085 6.798-1.632 10.013 4.454 3.215 4.674 5.332 2.91 5.067.705 1.367 3.875 1.543 4.054.221.752 2.778 2.913 6.526 7.896 5.909 4.983-.617 9.877-7.584 8.07-12.258z"/><path style="fill:#263238" d="M116.611 97.003c-3.757.517-5.473-1.605-4.528-3.472-4.658 2.378.428 7.642 4.528 3.472z"/><path style="fill:#ff8b7b" d="M132.607 105.664c.643 1.744 1.967 3.233 3.281 4.112 1.976 1.322 3.814.014 3.469-2.033-.311-1.842-1.713-4.75-3.795-5.269-2.051-.511-3.69 1.196-2.955 3.19z"/><path style="fill:#407bff" d="M386.785 387.517c-7.401-17.461-10.391-37.974-1.92-37.149 8.69.846 7.666 31.804 9.08 35.204-2.717 2.329-7.16 1.945-7.16 1.945z"/><path style="fill:#263238" d="M389.181 354.391c-1.826 6.655-3.747 16.949-5.225 25.669a107.38 107.38 0 0 0 2.822 7.459s4.445.384 7.171-1.946c-1.116-2.678-.72-22.522-4.768-31.182z"/><path style="fill:#407bff" d="M389.216 384.32c-2.312-37.103 4.031-71.489 20.644-69.936 14.281 1.335-6.54 63.797-6.139 71.004-6.54 2.536-14.505-1.068-14.505-1.068z"/><path style="fill:#407bff" d="M400.016 384.077c2.618-26.665 16.68-57.783 22.725-47.387 7.673 13.196-11.984 44.639-12.527 49.813-4.945 1.053-10.198-2.426-10.198-2.426zM397.367 324.286c-1.684-.276-2.624-1.33-2.518-2.818.121-1.676 1.5-3.345 2.784-3.37.611.005 1.655.317 1.913 2.637l-.994.111c-.122-1.097-.454-1.748-.891-1.748h-.009c-.683.013-1.72 1.246-1.806 2.441-.07.974.496 1.565 1.682 1.761l-.161.986zM415.331 331.013c-.505 0-1.171-.196-2.044-.769l.547-.836c.93.606 1.647.766 1.921.419.425-.534.135-2.119-.732-2.946-.707-.675-1.523-.616-2.43.175l-.656-.754c1.284-1.12 2.698-1.174 3.776-.145 1.215 1.16 1.623 3.286.824 4.292-.206.262-.581.564-1.206.564zM390.815 346.103c-1.351 0-2.309-.705-2.615-1.963-.398-1.632.403-3.642 1.618-4.059.571-.194 1.671-.206 2.628 1.925l-.912.41c-.454-1.013-.97-1.531-1.392-1.39-.646.222-1.255 1.713-.971 2.878.23.947.953 1.335 2.139 1.161l.148.988c-.223.033-.437.05-.643.05zM380.174 366.814c-1.025 0-1.843-.519-2.292-1.497-.7-1.527-.293-3.654.82-4.294.525-.3 1.603-.519 2.945 1.393l-.818.574c-.638-.908-1.248-1.319-1.629-1.1-.592.34-.908 1.919-.409 3.009.408.889 1.189 1.133 2.321.735l.332.943a3.84 3.84 0 0 1-1.27.237z"/><path style="fill:#fff" d="M397.888 336.621a.5.5 0 0 1-.291-.093c-1.374-.982-1.868-2.34-1.32-3.631.578-1.362 2.147-2.268 3.495-2.021.617.113 2.063.664 2.164 3.326a.502.502 0 0 1-.481.519.508.508 0 0 1-.519-.481c-.052-1.385-.529-2.23-1.345-2.38-.883-.161-2.002.505-2.395 1.429-.361.854-.013 1.715.982 2.426a.5.5 0 0 1-.29.906zM409.744 363.611a.5.5 0 0 1-.1-.989c1.357-.282 2.11-.895 2.122-1.723.014-.898-.831-1.89-1.808-2.122-.897-.215-1.693.272-2.229 1.372a.499.499 0 1 1-.898-.438c.74-1.52 1.99-2.234 3.36-1.907 1.44.343 2.595 1.737 2.575 3.109-.009.627-.311 2.145-2.919 2.686a.403.403 0 0 1-.103.012z"/><path style="fill:#407bff" d="M423.799 355.185c-.574 0-1.345-.344-2.213-1.637l.83-.557c.619.922 1.215 1.338 1.606 1.134.599-.328.948-1.9.472-3.001-.388-.896-1.165-1.157-2.305-.783l-.313-.949c1.618-.534 2.941-.034 3.534 1.335.669 1.542.218 3.659-.909 4.275a1.449 1.449 0 0 1-.702.183z"/><path style="fill:#263238" d="M420.821 393.874a22.227 22.227 0 0 0-5.392-14.54c.695-.117 1.238-.698 1.238-1.424 0-.81-.662-1.472-1.472-1.472h-33.481c-.81 0-1.472.663-1.472 1.472 0 .729.547 1.312 1.245 1.426a22.19 22.19 0 0 0-5.399 14.538c0 8.577 4.836 16.026 11.927 19.778a1.626 1.626 0 0 0-.878 1.435c0 .895.732 1.627 1.627 1.627h19.383c.895 0 1.627-.732 1.627-1.627 0-.623-.359-1.161-.876-1.434 7.091-3.751 11.923-11.201 11.923-19.779z"/></svg>