<svg width="30" height="30" viewBox="0 0 30 30" fill="none" xmlns="http://www.w3.org/2000/svg">
<path d="M21.2023 15.8615C21.191 13.9282 22.0669 12.4711 23.8358 11.3967C22.8465 9.97932 21.3497 9.19975 19.3767 9.04951C17.5086 8.9021 15.4648 10.1381 14.7164 10.1381C13.9255 10.1381 12.1169 9.10054 10.6938 9.10054C7.75701 9.14589 4.63593 11.4421 4.63593 16.1138C4.63593 17.4943 4.88822 18.9202 5.39281 20.3886C6.06749 22.3219 8.49972 27.0588 11.0368 26.9823C12.3635 26.9511 13.3018 26.0411 15.0282 26.0411C16.7036 26.0411 17.571 26.9823 19.0507 26.9823C21.6105 26.9454 23.8103 22.6394 24.451 20.7004C21.0181 19.0818 21.2023 15.9607 21.2023 15.8615ZM18.223 7.21541C19.6602 5.50888 19.5298 3.95542 19.4873 3.39697C18.2173 3.47068 16.7489 4.26158 15.9127 5.23391C14.9914 6.2771 14.4499 7.56692 14.5661 9.02116C15.9382 9.12605 17.1911 8.42019 18.223 7.21541Z" fill="black"/>
</svg>
