<svg width="12" height="22" viewBox="0 0 12 22" fill="none" xmlns="http://www.w3.org/2000/svg">
<path d="M11.7076 20.2921C11.8005 20.385 11.8742 20.4953 11.9244 20.6167C11.9747 20.7381 12.0006 20.8682 12.0006 20.9996C12.0006 21.131 11.9747 21.2611 11.9244 21.3825C11.8742 21.5039 11.8005 21.6142 11.7076 21.7071C11.6146 21.8 11.5043 21.8737 11.383 21.924C11.2616 21.9743 11.1314 22.0001 11.0001 22.0001C10.8687 22.0001 10.7386 21.9743 10.6172 21.924C10.4958 21.8737 10.3855 21.8 10.2926 21.7071L0.292554 11.7071C0.199577 11.6142 0.125819 11.5039 0.0754948 11.3825C0.0251705 11.2611 -0.000732422 11.131 -0.000732422 10.9996C-0.000732422 10.8682 0.0251705 10.738 0.0754948 10.6166C0.125819 10.4952 0.199577 10.385 0.292554 10.2921L10.2926 0.292079C10.4802 0.104439 10.7347 -0.000976568 11.0001 -0.000976562C11.2654 -0.000976557 11.5199 0.104439 11.7076 0.292079C11.8952 0.47972 12.0006 0.734215 12.0006 0.999579C12.0006 1.26494 11.8952 1.51944 11.7076 1.70708L2.4138 10.9996L11.7076 20.2921Z" fill="#238C98"/>
</svg>
