<svg width="30" height="30" viewBox="0 0 30 30" fill="none" xmlns="http://www.w3.org/2000/svg">
<path d="M26.8881 12.8209H25.9139V12.7708H15.0283V17.6088H21.8638C20.8666 20.4251 18.1869 22.4468 15.0283 22.4468C11.0206 22.4468 7.7713 19.1974 7.7713 15.1898C7.7713 11.1821 11.0206 7.93274 15.0283 7.93274C16.8783 7.93274 18.5613 8.63062 19.8428 9.77058L23.2638 6.3495C21.1037 4.33628 18.2142 3.09473 15.0283 3.09473C8.34884 3.09473 2.93329 8.51028 2.93329 15.1898C2.93329 21.8692 8.34884 27.2848 15.0283 27.2848C21.7078 27.2848 27.1234 21.8692 27.1234 15.1898C27.1234 14.3788 27.0399 13.5872 26.8881 12.8209Z" fill="#FFC107"/>
<path d="M4.3277 9.56013L8.30152 12.4744C9.37677 9.81231 11.9808 7.93274 15.0282 7.93274C16.8781 7.93274 18.5611 8.63062 19.8426 9.77058L23.2637 6.3495C21.1035 4.33628 18.214 3.09473 15.0282 3.09473C10.3825 3.09473 6.35362 5.71753 4.3277 9.56013Z" fill="#FF3D00"/>
<path d="M15.0283 27.285C18.1524 27.285 20.9911 26.0894 23.1374 24.1451L19.394 20.9774C18.1388 21.9319 16.6051 22.4482 15.0283 22.447C11.8824 22.447 9.21118 20.441 8.20487 17.6416L4.26068 20.6805C6.26241 24.5975 10.3275 27.285 15.0283 27.285Z" fill="#4CAF50"/>
<path d="M26.8879 12.8212H25.9137V12.771H15.0281V17.609H21.8636C21.3866 18.9494 20.5274 20.1206 19.392 20.9781L19.3938 20.9769L23.1373 24.1446C22.8724 24.3853 27.1232 21.2375 27.1232 15.19C27.1232 14.379 27.0397 13.5874 26.8879 12.8212Z" fill="#1976D2"/>
</svg>
