<svg width="26" height="27" viewBox="0 0 26 27" fill="none" xmlns="http://www.w3.org/2000/svg">
<path d="M24.9999 6.88704C24.7645 7.00894 24.4904 7.03238 24.2377 6.95222C23.985 6.87206 23.7745 6.69485 23.6524 6.45954C22.6979 4.5739 21.2532 2.98017 19.4699 1.84579C19.3588 1.7757 19.2626 1.6844 19.1867 1.57712C19.1109 1.46983 19.0569 1.34866 19.0279 1.22051C18.9989 1.09237 18.9954 0.959761 19.0176 0.830266C19.0398 0.700771 19.0873 0.576922 19.1574 0.465791C19.2275 0.35466 19.3188 0.258423 19.4261 0.182574C19.5334 0.106726 19.6546 0.0527519 19.7827 0.0237336C19.9109 -0.00528473 20.0435 -0.00877891 20.173 0.0134506C20.3025 0.0356801 20.4263 0.0831979 20.5374 0.153291C22.6157 1.48396 24.3032 3.34274 25.4274 5.53954C25.5493 5.77494 25.5728 6.04911 25.4926 6.30178C25.4125 6.55446 25.2353 6.76497 24.9999 6.88704ZM1.46369 6.99954C1.6469 6.99946 1.82656 6.94906 1.98307 6.85383C2.13958 6.7586 2.26692 6.62221 2.35119 6.45954C3.3057 4.5739 4.75047 2.98017 6.53369 1.84579C6.75813 1.70423 6.91714 1.47931 6.97575 1.22051C7.03436 0.961712 6.98775 0.69023 6.84619 0.465791C6.70463 0.241352 6.47971 0.0823387 6.22091 0.0237336C5.96211 -0.0348715 5.69063 0.0117316 5.46619 0.153291C3.38795 1.48396 1.70042 3.34274 0.576193 5.53954C0.49724 5.69194 0.458841 5.86209 0.464693 6.03363C0.470544 6.20517 0.520448 6.37231 0.609602 6.51898C0.698757 6.66564 0.82416 6.78689 0.973744 6.87106C1.12333 6.95522 1.29206 6.99947 1.46369 6.99954ZM24.7262 19.992C24.9034 20.2958 24.9973 20.641 24.9985 20.9927C24.9997 21.3444 24.9081 21.6901 24.7331 21.9952C24.558 22.3002 24.3056 22.5536 24.0013 22.73C23.697 22.9063 23.3516 22.9993 22.9999 22.9995H17.8999C17.6704 24.1298 17.0572 25.146 16.1642 25.8759C15.2712 26.6058 14.1533 27.0046 12.9999 27.0046C11.8466 27.0046 10.7287 26.6058 9.83568 25.8759C8.94267 25.146 8.32946 24.1298 8.09994 22.9995H2.99994C2.64847 22.9988 2.30339 22.9055 1.99945 22.729C1.69552 22.5525 1.44347 22.299 1.26869 21.9941C1.09392 21.6891 1.00259 21.3435 1.0039 20.9921C1.00522 20.6406 1.09914 20.2957 1.27619 19.992C2.40244 18.0483 2.99994 15.2845 2.99994 11.9995C2.99994 9.34738 4.05351 6.80384 5.92887 4.92847C7.80424 3.05311 10.3478 1.99954 12.9999 1.99954C15.6521 1.99954 18.1956 3.05311 20.071 4.92847C21.9464 6.80384 22.9999 9.34738 22.9999 11.9995C22.9999 15.2833 23.5974 18.047 24.7262 19.992ZM15.8274 22.9995H10.1724C10.3796 23.5838 10.7627 24.0895 11.269 24.4472C11.7753 24.8049 12.38 24.9969 12.9999 24.9969C13.6199 24.9969 14.2245 24.8049 14.7309 24.4472C15.2372 24.0895 15.6203 23.5838 15.8274 22.9995ZM22.9999 20.9995C21.6699 18.7158 20.9999 15.6883 20.9999 11.9995C20.9999 9.87781 20.1571 7.84298 18.6568 6.34269C17.1565 4.8424 15.1217 3.99954 12.9999 3.99954C10.8782 3.99954 8.84338 4.8424 7.34309 6.34269C5.8428 7.84298 4.99994 9.87781 4.99994 11.9995C4.99994 15.6895 4.32744 18.717 2.99994 20.9995H22.9999Z" fill="#238C98"/>
</svg>
