<svg width="13" height="12" viewBox="0 0 13 12" fill="none" xmlns="http://www.w3.org/2000/svg">
<path d="M11.375 4H10.5625V2.85714C10.5625 1.28 8.7425 0 6.5 0C4.2575 0 2.4375 1.28 2.4375 2.85714V4H1.625C0.73125 4 0 4.51429 0 5.14286V10.8571C0 11.4857 0.73125 12 1.625 12H11.375C12.2688 12 13 11.4857 13 10.8571V5.14286C13 4.51429 12.2688 4 11.375 4ZM6.5 9.14286C5.60625 9.14286 4.875 8.62857 4.875 8C4.875 7.37143 5.60625 6.85714 6.5 6.85714C7.39375 6.85714 8.125 7.37143 8.125 8C8.125 8.62857 7.39375 9.14286 6.5 9.14286ZM9.01875 4H3.98125V2.85714C3.98125 1.88 5.11062 1.08571 6.5 1.08571C7.88938 1.08571 9.01875 1.88 9.01875 2.85714V4Z" fill="#238C98"/>
</svg>
